<?xml version="1.0" encoding="UTF-8"?>
<svg width="3300px" height="2200px" viewBox="0 0 3300 2200" version="1.1" xmlns="http://www.w3.org/2000/svg" xmlns:xlink="http://www.w3.org/1999/xlink">
    <title>newsqr</title>
    <g id="Page-1" stroke="none" stroke-width="1" fill="none" fill-rule="evenodd">
        <g id="newlin">
            <g id="Notes">
                <rect id="artboard" fill="#FFFFFF" fill-rule="nonzero" x="0" y="0" width="3300" height="2200"></rect>
                <line x1="263" y1="292" x2="3036" y2="292" id="Path" stroke="#000000" stroke-width="0.5"></line>
                <text id="Weight/Scale-Variations" fill="#000000" fill-rule="nonzero" font-family="Helvetica-Bold, Helvetica" font-size="13" font-weight="bold">
                    <tspan x="263" y="322">Weight/Scale Variations</tspan>
                </text>
                <text id="Ultralight" fill="#000000" fill-rule="nonzero" font-family="Helvetica" font-size="13" font-weight="normal">
                    <tspan x="533.711" y="322">Ultralight</tspan>
                </text>
                <text id="Thin" fill="#000000" fill-rule="nonzero" font-family="Helvetica" font-size="13" font-weight="normal">
                    <tspan x="843.422" y="322">Thin</tspan>
                </text>
                <text id="Light" fill="#000000" fill-rule="nonzero" font-family="Helvetica" font-size="13" font-weight="normal">
                    <tspan x="1138.63" y="322">Light</tspan>
                </text>
                <text id="Regular" fill="#000000" fill-rule="nonzero" font-family="Helvetica" font-size="13" font-weight="normal">
                    <tspan x="1426.84" y="322">Regular</tspan>
                </text>
                <text id="Medium" fill="#000000" fill-rule="nonzero" font-family="Helvetica" font-size="13" font-weight="normal">
                    <tspan x="1723.06" y="322">Medium</tspan>
                </text>
                <text id="Semibold" fill="#000000" fill-rule="nonzero" font-family="Helvetica" font-size="13" font-weight="normal">
                    <tspan x="2015.77" y="322">Semibold</tspan>
                </text>
                <text id="Bold" fill="#000000" fill-rule="nonzero" font-family="Helvetica" font-size="13" font-weight="normal">
                    <tspan x="2326.48" y="322">Bold</tspan>
                </text>
                <text id="Heavy" fill="#000000" fill-rule="nonzero" font-family="Helvetica" font-size="13" font-weight="normal">
                    <tspan x="2618.19" y="322">Heavy</tspan>
                </text>
                <text id="Black" fill="#000000" fill-rule="nonzero" font-family="Helvetica" font-size="13" font-weight="normal">
                    <tspan x="2917.4" y="322">Black</tspan>
                </text>
                <line x1="263" y1="1903" x2="3036" y2="1903" id="Path" stroke="#000000" stroke-width="0.5"></line>
                <g id="Group" transform="translate(264.367190, 1918.068400)" fill="#000000" fill-rule="nonzero">
                    <path d="M7.88086,15.761678 C12.18751,15.761678 15.77151,12.18746 15.77151,7.88082 C15.77151,3.5742 12.17771,4.30211422e-16 7.87109,4.30211422e-16 C3.57422,4.30211422e-16 -7.77156117e-16,3.5742 -7.77156117e-16,7.88082 C-7.77156117e-16,12.18746 3.58398,15.761678 7.88086,15.761678 Z M7.88086,14.277303 C4.33593,14.277303 1.5039,11.43551 1.5039,7.88082 C1.5039,4.3261 4.32617,1.4843 7.87109,1.4843 C11.42581,1.4843 14.26761,4.3261 14.2774347,7.88082 C14.28711,11.43551 11.43551,14.277303 7.88086,14.277303 Z M5.02929,8.61324 L7.13867,8.61324 L7.13867,10.73238 C7.13867,11.17183 7.43164,11.47457 7.86133,11.47457 C8.31054,11.47457 8.60351,11.17183 8.60351,10.73238 L8.60351,8.61324 L10.73241,8.61324 C11.17191,8.61324 11.47461,8.32027 11.47461,7.89058 C11.47461,7.45113 11.17191,7.1484 10.73241,7.1484 L8.60351,7.1484 L8.60351,5.03902 C8.60351,4.5898 8.31054,4.2871 7.86133,4.2871 C7.43164,4.2871 7.13867,4.5898 7.13867,5.03902 L7.13867,7.1484 L5.02929,7.1484 C4.58008,7.1484 4.27734,7.45113 4.27734,7.89058 C4.27734,8.32027 4.58008,8.61324 5.02929,8.61324 Z" id="Shape"></path>
                </g>
                <g id="Group" transform="translate(283.254050, 1915.988300)" fill="#000000" fill-rule="nonzero">
                    <path d="M9.96095,19.92186 C15.41015,19.92186 19.92185,15.40037 19.92185,9.96092 C19.92185,4.5117 15.40035,-6.66133815e-16 9.95115,-6.66133815e-16 C4.51172,-6.66133815e-16 7.77156117e-16,4.5117 7.77156117e-16,9.96092 C7.77156117e-16,15.40037 4.52148,19.92186 9.96095,19.92186 Z M9.96095,18.2617 C5.35156,18.2617 1.66992,14.57029 1.66992,9.96092 C1.66992,5.3515 5.34179,1.6601 9.95115,1.6601 C14.56055,1.6601 18.25195,5.3515 18.2618443,9.96092 C18.27145,14.57029 14.57035,18.2617 9.96095,18.2617 Z M6.24023,10.78123 L9.13085,10.78123 L9.13085,13.69139 C9.13085,14.17967 9.46285,14.5117 9.94145,14.5117 C10.42965,14.5117 10.77145,14.17967 10.77145,13.69139 L10.77145,10.78123 L13.68165,10.78123 C14.16995,10.78123 14.50195,10.4492 14.50195,9.97068 C14.50195,9.4824 14.16995,9.14061 13.68165,9.14061 L10.77145,9.14061 L10.77145,6.25 C10.77145,5.7422 10.42965,5.4101 9.94145,5.4101 C9.46285,5.4101 9.13085,5.7519 9.13085,6.25 L9.13085,9.14061 L6.24023,9.14061 C5.73242,9.14061 5.40039,9.4824 5.40039,9.97068 C5.40039,10.4492 5.74218,10.78123 6.24023,10.78123 Z" id="Shape"></path>
                </g>
                <g id="Group" transform="translate(307.179860, 1913.224600)" fill="#000000" fill-rule="nonzero">
                    <path d="M12.71484,25.43946 C19.67774,25.43946 25.43944,19.6777438 25.43944,12.72462 C25.43944,5.7617 19.66794,-5.82867088e-16 12.70504,-5.82867088e-16 C5.75195,-5.82867088e-16 -2.22044605e-16,5.7617 -2.22044605e-16,12.72462 C-2.22044605e-16,19.6777438 5.76172,25.43946 12.71484,25.43946 Z M12.71484,23.62306 C6.67969,23.62306 1.82617,18.75978 1.82617,12.72462 C1.82617,6.6797 6.66992,1.8262 12.70504,1.8262 C18.75004,1.8262 23.60354,6.6797 23.6133135,12.72462 C23.62304,18.75978 18.75974,23.62306 12.71484,23.62306 Z M7.80274,13.63282 L11.80664,13.63282 L11.80664,17.64649 C11.80664,18.1836 12.17774,18.5547 12.69534,18.5547 C13.23244,18.5547 13.60354,18.1836 13.60354,17.64649 L13.60354,13.63282 L17.62694,13.63282 C18.15434,13.63282 18.53514,13.26173 18.53514,12.74415 C18.53514,12.20704 18.16404,11.82618 17.62694,11.82618 L13.60354,11.82618 L13.60354,7.8223 C13.60354,7.2656 13.23244,6.8945 12.69534,6.8945 C12.17774,6.8945 11.80664,7.2754 11.80664,7.8223 L11.80664,11.82618 L7.80274,11.82618 C7.24609,11.82618 6.875,12.20704 6.875,12.74415 C6.875,13.26173 7.25586,13.63282 7.80274,13.63282 Z" id="Shape"></path>
                </g>
                <text id="Design-Variations" fill="#000000" fill-rule="nonzero" font-family="Helvetica-Bold, Helvetica" font-size="13" font-weight="bold">
                    <tspan x="263" y="1953">Design Variations</tspan>
                </text>
                <text id="Symbols-are-supported-in-up-to-nine-weights-and-three-scales." fill="#000000" fill-rule="nonzero" font-family="Helvetica" font-size="13" font-weight="normal">
                    <tspan x="263" y="1971">Symbols are supported in up to nine weights and three scales.</tspan>
                </text>
                <text id="For-optimal-layout-with-text-and-other-symbols,-vertically-align" fill="#000000" fill-rule="nonzero" font-family="Helvetica" font-size="13" font-weight="normal">
                    <tspan x="263" y="1989">For optimal layout with text and other symbols, vertically align</tspan>
                </text>
                <text id="symbols-with-the-adjacent-text." fill="#000000" fill-rule="nonzero" font-family="Helvetica" font-size="13" font-weight="normal">
                    <tspan x="263" y="2007">symbols with the adjacent text.</tspan>
                </text>
                <line x1="776" y1="1919" x2="776" y2="1933" id="Path" stroke="#00AEEF" stroke-width="0.5"></line>
                <g id="Group" transform="translate(778.490230, 1918.712900)" fill="#000000" fill-rule="nonzero">
                    <path d="M0.82032,14.414053 C1.33789,14.414053 1.5918,14.2187406 1.77735,13.681631 L3.03711,10.2246 L8.79887,10.2246 L10.05857,13.681631 C10.24417,14.2187406 10.49807,14.414053 11.00587,14.414053 C11.52347,14.414053 11.85547,14.101553 11.85547,13.613272 C11.85547,13.447256 11.82617,13.300772 11.74807,13.08593 L7.16797,0.8984 C6.94336,0.293 6.54297,-3.33066907e-16 5.91797,-3.33066907e-16 C5.3125,-3.33066907e-16 4.90235,0.293 4.6875,0.8887 L0.10743,13.09569 C0.0293,13.310538 -3.88578059e-16,13.457022 -3.88578059e-16,13.623038 C-3.88578059e-16,14.111319 0.3125,14.414053 0.82032,14.414053 Z M3.51563,8.74999 L5.88868,2.1777 L5.9375,2.1777 L8.31057,8.74999 L3.51563,8.74999 Z" id="Shape"></path>
                </g>
                <line x1="792.836" y1="1919" x2="792.836" y2="1933" id="Path" stroke="#00AEEF" stroke-width="0.5"></line>
                <text id="Margins" fill="#000000" fill-rule="nonzero" font-family="Helvetica-Bold, Helvetica" font-size="13" font-weight="bold">
                    <tspan x="776" y="1953">Margins</tspan>
                </text>
                <text id="Leading-and-trailing-margins-on-the-left-and-right-side-of-each-symbol" fill="#000000" fill-rule="nonzero" font-family="Helvetica" font-size="13" font-weight="normal">
                    <tspan x="776" y="1971">Leading and trailing margins on the left and right side of each symbol</tspan>
                </text>
                <text id="can-be-adjusted-by-modifying-the-x-location-of-the-margin-guidelines." fill="#000000" fill-rule="nonzero" font-family="Helvetica" font-size="13" font-weight="normal">
                    <tspan x="776" y="1989">can be adjusted by modifying the x-location of the margin guidelines.</tspan>
                </text>
                <text id="Modifications-are-automatically-applied-proportionally-to-all" fill="#000000" fill-rule="nonzero" font-family="Helvetica" font-size="13" font-weight="normal">
                    <tspan x="776" y="2007">Modifications are automatically applied proportionally to all</tspan>
                </text>
                <text id="scales-and-weights." fill="#000000" fill-rule="nonzero" font-family="Helvetica" font-size="13" font-weight="normal">
                    <tspan x="776" y="2025">scales and weights.</tspan>
                </text>
                <g id="Group" transform="translate(1291.248126, 1914.517396)" fill="#000000" fill-rule="nonzero">
                    <path d="M0.593673634,20.347834 L2.29289363,22.056824 C3.15226363,22.925964 4.13859363,22.867374 5.06632363,21.841984 L15.2420736,10.631044 C15.5057736,10.718934 15.7791736,10.699404 16.0916736,10.640804 L17.1561736,10.445494 L17.8202736,11.119324 L17.7811736,11.675964 C17.7420736,12.174014 17.8690736,12.554874 18.3573736,13.033384 L19.1190736,13.775574 C19.5975736,14.254084 20.2127736,14.283384 20.6815736,13.814634 L23.5916736,10.894714 C24.0604736,10.425964 24.0409736,9.83026404 23.5623736,9.35174404 L22.7909736,8.59002404 C22.3123736,8.11150404 21.9413736,7.95530404 21.4627736,7.99430404 L20.8866736,8.04310404 L20.2420736,7.40840404 L20.4862736,6.28530404 C20.6131736,5.71890404 20.4569736,5.27950404 19.8709736,4.69350404 L17.6737736,2.50600404 C14.3338736,-0.814295965 9.90027363,-0.736195965 7.00968363,2.15450404 C6.58976363,2.56460404 6.56046363,3.14080404 6.79484363,3.53140404 C7.02921363,3.89280404 7.48820363,4.12710404 8.13277363,3.96110404 C9.59757363,3.61930404 11.1209736,3.56070404 12.5467736,4.49820404 L11.9608736,5.95330404 C11.7655736,6.43180404 11.7362736,6.83220404 11.8631736,7.19350404 L0.798753634,17.584166 C-0.187576366,18.5021352 -0.265706366,19.478698 0.593673634,20.347834 Z M8.50387363,2.52560404 C10.9354736,0.748204035 14.2264736,1.05100404 16.4530736,3.27750404 L18.8846736,5.68960404 C19.1190736,5.92400404 19.1580736,6.10960404 19.0897736,6.45140404 L18.7674736,7.93570404 L20.2713736,9.42010404 L21.2577736,9.36151404 C21.5116736,9.35174404 21.5897736,9.37127404 21.7850736,9.56658404 L22.3612736,10.142764 L19.9198736,12.584164 L19.3436736,12.007994 C19.1483736,11.812684 19.1190736,11.734554 19.1288736,11.470884 L19.1971736,10.494324 L17.7030736,9.00994404 L16.1795736,9.26385404 C15.8573736,9.33221404 15.7108736,9.30291404 15.4666736,9.06854404 L13.4647736,7.06660404 C13.2108736,6.83220404 13.1815736,6.66620404 13.3377736,6.29510404 L14.2166736,4.20530404 C12.6541736,2.75020404 10.6229736,2.12520404 8.59167363,2.72090404 C8.43547363,2.75990404 8.37687363,2.63300404 8.50387363,2.52560404 Z M3.02531363,20.787304 L1.85343363,19.625184 C1.38468363,19.166198 1.49210363,18.824401 1.89249363,18.4630728 L12.7030736,8.28730404 L14.1678736,9.77166404 L4.17765363,20.757994 C3.82609363,21.158384 3.49406363,21.256044 3.02531363,20.787304 Z" id="Shape"></path>
                </g>
                <text id="Exporting" fill="#000000" fill-rule="nonzero" font-family="Helvetica-Bold, Helvetica" font-size="13" font-weight="bold">
                    <tspan x="1289" y="1953">Exporting</tspan>
                </text>
                <text id="Symbols-should-be-outlined-when-exporting-to-ensure-the" fill="#000000" fill-rule="nonzero" font-family="Helvetica" font-size="13" font-weight="normal">
                    <tspan x="1289" y="1971">Symbols should be outlined when exporting to ensure the</tspan>
                </text>
                <text id="design-is-preserved-when-submitting-to-Xcode." fill="#000000" fill-rule="nonzero" font-family="Helvetica" font-size="13" font-weight="normal">
                    <tspan x="1289" y="1989">design is preserved when submitting to Xcode.</tspan>
                </text>
                <text id="Template-v.2.0" fill="#000000" fill-rule="nonzero" font-family="Helvetica" font-size="13" font-weight="normal">
                    <tspan x="2952" y="1933">Template v.2.0</tspan>
                </text>
                <text id="Requires-Xcode-12-or-greater" fill="#000000" fill-rule="nonzero" font-family="Helvetica" font-size="13" font-weight="normal">
                    <tspan x="2865" y="1951">Requires Xcode 12 or greater</tspan>
                </text>
                <text id="Generated-from-doc.text" fill="#000000" fill-rule="nonzero" font-family="Helvetica" font-size="13" font-weight="normal">
                    <tspan x="2895" y="1969">Generated from doc.text</tspan>
                </text>
                <text id="Typeset-at-100-points" fill="#000000" fill-rule="nonzero" font-family="Helvetica" font-size="13" font-weight="normal">
                    <tspan x="2912" y="1987">Typeset at 100 points</tspan>
                </text>
                <text id="Small" fill="#000000" fill-rule="nonzero" font-family="Helvetica" font-size="13" font-weight="normal">
                    <tspan x="263" y="726">Small</tspan>
                </text>
                <text id="Medium" fill="#000000" fill-rule="nonzero" font-family="Helvetica" font-size="13" font-weight="normal">
                    <tspan x="263" y="1156">Medium</tspan>
                </text>
                <text id="Large" fill="#000000" fill-rule="nonzero" font-family="Helvetica" font-size="13" font-weight="normal">
                    <tspan x="263" y="1586">Large</tspan>
                </text>
            </g>
            <g id="Guides" transform="translate(263.000000, 625.041000)">
                <g id="H-reference" transform="translate(76.976562, 0.500000)" fill="#27AAE1" fill-rule="nonzero">
                    <path d="M-1.22124533e-15,70.459 L2.685548,70.459 L12.011738,45.9961 L44.775438,45.9961 L54.150438,70.459 L56.787138,70.459 L29.638638,3.21964677e-15 L27.148438,3.21964677e-15 L-1.22124533e-15,70.459 Z M28.369138,3.3203 L28.466838,3.3203 L43.896438,43.75 L12.890638,43.75 L28.369138,3.3203 Z" id="Shape"></path>
                </g>
                <line x1="0" y1="70.959" x2="2773" y2="70.959" id="Baseline-S" stroke="#27AAE1" stroke-width="0.5"></line>
                <line x1="0" y1="0.5" x2="2773" y2="0.5" id="Capline-S" stroke="#27AAE1" stroke-width="0.5"></line>
                <g id="H-reference" transform="translate(76.976562, 430.500000)" fill="#27AAE1" fill-rule="nonzero">
                    <path d="M-1.22124533e-15,70.459 L2.685548,70.459 L12.011738,45.9961 L44.775438,45.9961 L54.150438,70.459 L56.787138,70.459 L29.638638,3.21964677e-15 L27.148438,3.21964677e-15 L-1.22124533e-15,70.459 Z M28.369138,3.3203 L28.466838,3.3203 L43.896438,43.75 L12.890638,43.75 L28.369138,3.3203 Z" id="Shape"></path>
                </g>
                <line x1="0" y1="500.959" x2="2773" y2="500.959" id="Baseline-M" stroke="#27AAE1" stroke-width="0.5"></line>
                <line x1="0" y1="430.499" x2="2773" y2="430.499" id="Capline-M" stroke="#27AAE1" stroke-width="0.5"></line>
                <g id="H-reference" transform="translate(76.976562, 860.500000)" fill="#27AAE1" fill-rule="nonzero">
                    <path d="M-1.22124533e-15,70.459 L2.685548,70.459 L12.011738,45.9961 L44.775438,45.9961 L54.150438,70.459 L56.787138,70.459 L29.638638,3.21964677e-15 L27.148438,3.21964677e-15 L-1.22124533e-15,70.459 Z M28.369138,3.3203 L28.466838,3.3203 L43.896438,43.75 L12.890638,43.75 L28.369138,3.3203 Z" id="Shape"></path>
                </g>
                <line x1="0" y1="930.959" x2="2773" y2="930.959" id="Baseline-L" stroke="#27AAE1" stroke-width="0.5"></line>
                <line x1="0" y1="860.499" x2="2773" y2="860.499" id="Capline-L" stroke="#27AAE1" stroke-width="0.5"></line>
                <line x1="1133.33" y1="405.749" x2="1133.33" y2="525.079" id="left-margin" stroke="#00AEEF" stroke-width="0.5"></line>
                <line x1="1240.36" y1="405.749" x2="1240.36" y2="525.079" id="right-margin" stroke="#00AEEF" stroke-width="0.5"></line>
            </g>
            <g id="Symbols" transform="translate(509.613500, 617.435500)" fill="#000000" fill-rule="nonzero">
                <g id="Black-L" transform="translate(2366.101000, 832.900500)">
                    <path d="M23.8281,140.9179 L91.5525,140.9179 C106.7385,140.9179 115.3805,132.2265 115.3805,116.9921 L115.3805,60.3027 C115.3805,49.2187 113.6235,43.457 106.4945,36.2792 L79.3457,8.8867 C72.3144,1.855 66.4062,0 55.664,0 L23.8281,0 C8.6425,0 0,8.6913 0,23.9257 L0,116.9921 C0,132.2265 8.6425,140.9179 23.8281,140.9179 Z M26.6601,120.6542 C22.1191,120.6542 20.2636,118.5058 20.2636,114.25775 L20.2636,26.6601 C20.2636,22.412 22.1191,20.2636 26.6601,20.2636 L49.2675,20.2636 L49.2675,47.5585 C49.2675,60.4003 55.2246,66.3574 68.0664,66.3574 L95.1655,66.3574 L95.1655,114.25775 C95.1655,118.5058 93.2615,120.6542 88.7205,120.6542 L26.6601,120.6542 Z M69.3847,50.4394 C66.6015,50.4394 65.1855,49.0234 65.1855,46.1913 L65.1855,21.1913 L94.1895,50.4394 L69.3847,50.4394 Z M31.7513803,17.664 L23.2855,17.664 C23.2855,98.2644288 23.2855,50.6350954 23.2855,125.664 L31.7513803,125.664 M51.9294202,17.664 L43.4635399,17.664 C43.4635399,98.2644288 43.4635399,50.6350954 43.4635399,125.664 L51.9294202,125.664 M72.1074601,55.942481 L63.6415798,55.942481 C63.6415798,107.975669 63.6415798,77.2276185 63.6415798,125.664 L72.1074601,125.664 M92.2855,57.3095696 L83.8196197,57.3095696 C83.8196197,108.322499 83.8196197,78.1773515 83.8196197,125.664 L92.2855,125.664 M57.3889483,30.664 L18.2855,30.664 C18.2855,38.9812523 18.2855,34.0663258 18.2855,41.8086461 L57.3889483,41.8086461 M57.3889483,52.949118 L18.2855,52.949118 C18.2855,61.2663703 18.2855,56.3514438 18.2855,64.093764 L57.3889483,64.093764 M97.7855,75.234236 L18.2855,75.234236 C18.2855,83.5514883 18.2855,78.6365618 18.2855,86.378882 L97.7855,86.378882 M99.2855,97.5193539 L18.2855,97.5193539 C18.2855,105.836606 18.2855,100.92168 18.2855,108.664 L99.2855,108.664" id="Shape"></path>
                </g>
                <g id="Heavy-L" transform="translate(2070.631000, 833.632500)">
                    <path d="M22.6562,139.4047 L90.2835,139.4047 C104.8335,139.4047 112.8905,131.2992 112.8905,116.6508 L112.8905,59.5707 C112.8905,49.3656 111.3285,44.2386 104.8335,37.6957 L75.5371,8.1058 C69.1406,1.661 63.8183,0 54.0527,0 L22.6562,0 C8.1054,0 0,8.1547 0,22.7543 L0,116.6508 C0,131.2992 8.0566,139.4047 22.6562,139.4047 Z M24.9023,121.9242 C19.8242,121.9242 17.5293,119.3851 17.5293,114.55114 L17.5293,24.9027 C17.5293,20.0687 19.8242,17.5297 24.9511,17.5297 L49.0234,17.5297 L49.0234,47.2172 C49.0234,58.7894 54.4433,64.2093 66.0156,64.2093 L95.4105,64.2093 L95.4105,114.55114 C95.4105,119.3851 93.1155,121.9242 87.9885,121.9242 L24.9023,121.9242 Z M67.2363,50.098 C64.4531,50.098 63.0859,48.7797 63.0859,45.9476 L63.0859,18.6527 L94.2385,50.098 L67.2363,50.098 Z M31.0986863,13.932 L22.7555,13.932 C22.7555,97.5176299 22.7555,48.124247 22.7555,125.932 L31.0986863,125.932 M50.9842909,13.932 L42.6411046,13.932 C42.6411046,97.5176299 42.6411046,48.124247 42.6411046,125.932 L50.9842909,125.932 M70.8698954,53.6282025 L62.5267091,53.6282025 C62.5267091,107.588546 62.5267091,75.7016785 62.5267091,125.932 L70.8698954,125.932 M90.7555,55.0459241 L82.4123137,55.0459241 C82.4123137,107.948221 82.4123137,76.6865867 82.4123137,125.932 L90.7555,125.932 M55.3072241,26.932 L14.7555,26.932 C14.7555,33.6079755 14.7555,29.6629312 14.7555,35.8774282 L55.3072241,35.8774282 M55.3072241,46.4456429 L14.7555,46.4456429 C14.7555,53.1216184 14.7555,49.1765741 14.7555,55.3910712 L55.3072241,55.3910712 M97.1999444,65.9592859 L14.7555,65.9592859 C14.7555,72.6352614 14.7555,68.6902171 14.7555,74.9047141 L97.1999444,74.9047141 M98.7555,85.4729288 L14.7555,85.4729288 C14.7555,92.1489043 14.7555,88.20386 14.7555,94.4183571 L98.7555,94.4183571 M98.7555,104.986572 L14.7555,104.986572 C14.7555,111.662547 14.7555,107.717503 14.7555,113.932 L98.7555,113.932" id="Shape"></path>
                </g>
                <g id="Bold-L" transform="translate(1775.311000, 834.511500)">
                    <path d="M21.3378,137.6956 L88.8185,137.6956 C102.6365,137.6956 110.1075,130.176 110.1075,116.26 L110.1075,58.6917 C110.1075,49.512 108.7895,45.0198 102.9785,39.1604 L71.289,7.1292 C65.625,1.416 60.8886,0 52.2949,0 L21.3378,0 C7.5195,0 0,7.5198 0,21.4358 L0,116.26 C0,130.176 7.4707,137.6956 21.3378,137.6956 Z M22.9492,123.2425 C17.1875,123.2425 14.4531,120.3128 14.4531,114.7952 L14.4531,22.9007 C14.4531,17.4319 17.1875,14.4046 22.998,14.4046 L48.7304,14.4046 L48.7304,46.7776 C48.7304,56.9339 53.6132,61.719 63.6718,61.719 L95.6545,61.719 L95.6545,114.7952 C95.6545,120.3128 92.9195,123.2425 87.1585,123.2425 L22.9492,123.2425 Z M64.7949,49.6585 C62.0117,49.6585 60.7421,48.4378 60.7421,45.6546 L60.7421,15.7718 L94.3355,49.6585 L64.7949,49.6585 Z M28.5413803,14.053 L20.0755,14.053 C20.0755,96.8923296 20.0755,47.9399591 20.0755,125.053 L28.5413803,125.053 M48.7194202,14.053 L40.2535399,14.053 C40.2535399,96.8923296 40.2535399,47.9399591 40.2535399,125.053 L48.7194202,125.053 M68.8974601,53.3947722 L60.4315798,53.3947722 C60.4315798,106.873327 60.4315798,75.2711635 60.4315798,125.053 L68.8974601,125.053 M89.0755,54.7998354 L80.6096197,54.7998354 C80.6096197,107.229791 80.6096197,76.2472779 80.6096197,125.053 L89.0755,125.053 M54.1099828,24.053 L13.0755,24.053 C13.0755,30.3303713 13.0755,26.6208748 13.0755,32.4643212 L54.1099828,32.4643212 M54.1099828,44.2001697 L13.0755,44.2001697 C13.0755,50.477541 13.0755,46.7680445 13.0755,52.6114909 L54.1099828,52.6114909 M96.5014259,64.3473394 L13.0755,64.3473394 C13.0755,70.6247107 13.0755,66.9152141 13.0755,72.7586606 L96.5014259,72.7586606 M98.0755,84.4945091 L13.0755,84.4945091 C13.0755,90.7718804 13.0755,87.0623838 13.0755,92.9058303 L98.0755,92.9058303 M98.0755,104.641679 L13.0755,104.641679 C13.0755,110.91905 13.0755,107.209554 13.0755,113.053 L98.0755,113.053" id="Shape"></path>
                </g>
                <g id="Semibold-L" transform="translate(1479.551000, 835.048500)">
                    <path d="M20.4101,136.5726 L87.7925,136.5726 C101.1235,136.5726 108.2035,129.4437 108.2035,116.016 L108.2035,58.1547 C108.2035,49.6586 107.0315,45.6547 101.6605,40.2348 L68.3593,6.5433 C63.1835,1.27 58.8867,0 51.0742,0 L20.4101,0 C7.08,0 0,7.1293 0,20.6058 L0,116.016 C0,129.4926 7.0312,136.5726 20.4101,136.5726 Z M21.582,124.268 C15.3808,124.268 12.3535,121.0453 12.3535,115.0394 L12.3535,21.5824 C12.3535,15.6742 15.3808,12.3539 21.6308,12.3539 L48.5351,12.3539 L48.5351,46.5336 C48.5351,55.7133 53.0273,60.1078 62.0605,60.1078 L95.8495,60.1078 L95.8495,115.0394 C95.8495,121.0453 92.7735,124.268 86.5725,124.268 L21.582,124.268 Z M63.1347,49.4633 C60.3515,49.4633 59.1796,48.2426 59.1796,45.4594 L59.1796,13.8187 L94.3845,49.4633 L63.1347,49.4633 Z M29.5774926,10.516 L22.8354996,10.516 C22.8354996,97.0868309 22.8354996,45.9293987 22.8354996,126.516 L29.5774926,126.516 M47.663495,10.516 L40.921502,10.516 C40.921502,97.0868309 40.921502,45.9293987 40.921502,126.516 L47.663495,126.516 M65.7494975,51.6299241 L59.0075045,51.6299241 C59.0075045,107.517423 59.0075045,74.4917384 59.0075045,126.516 L65.7494975,126.516 M83.8354999,53.0982785 L77.0935069,53.0982785 C77.0935069,107.889944 77.0935069,75.511822 77.0935069,126.516 L83.8354999,126.516 M52.8355,21.516 L10.8355,21.516 C10.8355,26.9546348 10.8355,23.7407741 10.8355,28.803462 L52.8355,28.803462 M52.8355,38.4585077 L10.8355,38.4585077 C10.8355,43.8971425 10.8355,40.6832817 10.8355,45.7459697 L52.8355,45.7459697 M96.2243889,55.4010154 L10.8355,55.4010154 C10.8355,60.8396495 10.8355,57.6257892 10.8355,62.6884764 L96.2243889,62.6884764 M97.8355,72.3435231 L10.8355,72.3435231 C10.8355,77.7821579 10.8355,74.5682972 10.8355,79.6309851 L97.8355,79.6309851 M97.8355,89.2860307 L10.8355,89.2860307 C10.8355,94.7246656 10.8355,91.5108048 10.8355,96.5734927 L97.8355,96.5734927 M97.8355,106.228538 L10.8355,106.228538 C10.8355,111.667173 10.8355,108.453312 10.8355,113.516 L97.8355,113.516" id="Shape"></path>
                </g>
                <g id="Medium-L" transform="translate(1183.571000, 835.488500)">
                    <path d="M19.7265,135.742 L87.0115,135.742 C99.9995,135.742 106.7385,128.9061 106.7385,115.8201 L106.7385,57.7147 C106.7385,49.7557 105.6645,46.0936 100.6835,41.0643 L66.1621,6.0545 C61.3769,1.172 57.373,0 50.1464,0 L19.7265,0 C6.7871,0 0,6.8358 0,19.9217 L0,115.8201 C0,128.9549 6.7382,135.742 19.7265,135.742 Z M20.5566,124.9998 C14.0625,124.9998 10.7421,121.533 10.7421,115.1854 L10.7421,20.5076 C10.7421,14.3065 14.0625,10.742 20.6054,10.742 L48.3886,10.742 L48.3886,46.3377 C48.3886,54.785 52.539,58.7889 60.8398,58.7889 L95.9965,58.7889 L95.9965,115.1854 C95.9965,121.533 92.6755,124.9998 86.1325,124.9998 L20.5566,124.9998 Z M61.8652,49.2674 C59.082,49.2674 57.9589,48.0955 57.9589,45.3123 L57.9589,12.3533 L94.3845,49.2674 L61.8652,49.2674 Z M21.3151551,9.076 L13.8155,9.076 C13.8155,98.632032 13.8155,45.7105504 13.8155,129.076 L21.3151551,129.076 M39.1902413,9.076 L31.6905862,9.076 C31.6905862,98.632032 31.6905862,45.7105504 31.6905862,129.076 L39.1902413,129.076 M57.0653275,51.6076456 L49.5656725,51.6076456 C49.5656725,109.422299 49.5656725,75.2577984 49.5656725,129.076 L57.0653275,129.076 M74.9404138,53.1266329 L67.4407587,53.1266329 C67.4407587,109.807666 67.4407587,76.3130572 67.4407587,129.076 L74.9404138,129.076 M92.8155,53.1266329 L85.3158449,53.1266329 C85.3158449,109.807666 85.3158449,76.3130572 85.3158449,129.076 L92.8155,129.076 M51.7810172,20.076 L8.8155,20.076 C8.8155,25.0963515 8.8155,22.1296676 8.8155,26.802986 L51.7810172,26.802986 M51.7810172,37.7306028 L8.8155,37.7306028 C8.8155,42.7509543 8.8155,39.7842704 8.8155,44.4575888 L51.7810172,44.4575888 M96.1673519,55.3852056 L8.8155,55.3852056 C8.8155,60.4055571 8.8155,57.4388732 8.8155,62.1121916 L96.1673519,62.1121916 M97.8155,73.0398084 L8.8155,73.0398084 C8.8155,78.0601598 8.8155,75.093476 8.8155,79.7667944 L97.8155,79.7667944 M97.8155,90.6944112 L8.8155,90.6944112 C8.8155,95.7147626 8.8155,92.7480788 8.8155,97.4213972 L97.8155,97.4213972 M97.8155,108.349014 L8.8155,108.349014 C8.8155,113.369365 8.8155,110.402682 8.8155,115.076 L97.8155,115.076" id="Shape"></path>
                </g>
                <g id="Regular-L" transform="translate(887.811000, 836.074500)">
                    <path d="M18.7988,134.5701 L86.0355,134.5701 C98.5355,134.5701 104.8335,128.1248 104.8335,115.5759 L104.8335,57.1287 C104.8335,49.8533 103.9555,46.6795 99.4145,42.0896 L63.2324,5.4197 C58.9355,0.976 55.4199,0 48.9257,0 L18.7988,0 C6.3964,0 0,6.3962 0,18.9939 L0,115.5759 C0,128.1736 6.2988,134.5701 18.7988,134.5701 Z M19.2382,125.9275 C12.2558,125.9275 8.6425,122.2166 8.6425,115.3806 L8.6425,19.1892 C8.6425,12.4998 12.2558,8.6423 19.2871,8.6423 L48.1933,8.6423 L48.1933,46.0447 C48.1933,53.5154 51.9531,57.1287 59.2773,57.1287 L96.1915,57.1287 L96.1915,115.3806 C96.1915,122.2166 92.5785,125.9275 85.5465,125.9275 L19.2382,125.9275 Z M60.205,48.9744 C57.4707,48.9744 56.3476,47.9002 56.3476,45.117 L56.3476,10.3513 L94.4825,48.9744 L60.205,48.9744 Z M22.3966291,6.49 L17.5755,6.49 C17.5755,98.2849328 17.5755,44.0404142 17.5755,129.49 L22.3966291,129.49 M38.4413468,6.49 L33.6202177,6.49 C33.6202177,98.2849328 33.6202177,44.0404142 33.6202177,129.49 L38.4413468,129.49 M54.4860646,50.0849367 L49.6649354,50.0849367 C49.6649354,109.344957 49.6649354,74.3263433 49.6649354,129.49 L54.4860646,129.49 M70.5307823,51.6418987 L65.7096532,51.6418987 C65.7096532,109.739957 65.7096532,75.4079836 65.7096532,129.49 L70.5307823,129.49 M86.5755,51.6418987 L81.7543709,51.6418987 C81.7543709,109.739957 81.7543709,75.4079836 81.7543709,129.49 L86.5755,129.49 M51.5065345,18.49 L7.5755,18.49 C7.5755,22.1300514 7.5755,19.9790303 7.5755,23.3674623 L51.5065345,23.3674623 M51.5065345,34.010423 L7.5755,34.010423 C7.5755,37.6504744 7.5755,35.4994533 7.5755,38.8878852 L51.5065345,38.8878852 M51.5065345,49.5308459 L7.5755,49.5308459 C7.5755,53.1708973 7.5755,51.0198762 7.5755,54.4083082 L51.5065345,54.4083082 M98.5755,65.0512689 L7.5755,65.0512689 C7.5755,68.6913203 7.5755,66.5402992 7.5755,69.9287311 L98.5755,69.9287311 M98.5755,80.5716918 L7.5755,80.5716918 C7.5755,84.2117432 7.5755,82.0607221 7.5755,85.4491541 L98.5755,85.4491541 M98.5755,96.0921148 L7.5755,96.0921148 C7.5755,99.7321662 7.5755,97.5811451 7.5755,100.969577 L98.5755,100.969577 M98.5755,111.612538 L7.5755,111.612538 C7.5755,115.252589 7.5755,113.101568 7.5755,116.49 L98.5755,116.49" id="Shape"></path>
                </g>
                <g id="Light-L" transform="translate(591.881000, 836.464500)">
                    <path d="M17.871,133.8871 L85.4495,133.8871 C97.2165,133.8871 103.2715,127.7348 103.2715,115.8695 L103.2715,55.8109 C103.2715,49.6586 102.4415,46.9242 98.6325,43.0668 L60.498,4.6391 C56.8359,0.928 53.8574,0 48.2421,0 L17.871,0 C6.1523,0 0,6.1039 0,17.9691 L0,115.8695 C0,127.7836 6.0546,133.8871 17.871,133.8871 Z M18.164,127.2465 C10.5468,127.2465 6.6406,123.2426 6.6406,115.723 L6.6406,18.1156 C6.6406,10.8402 10.5468,6.5922 18.2128,6.5922 L48.3886,6.5922 L48.3886,45.2152 C48.3886,52.0512 51.8554,55.1762 58.3984,55.1762 L96.6795,55.1762 L96.6795,115.723 C96.6795,123.2426 92.7245,127.2465 85.1075,127.2465 L18.164,127.2465 Z M59.0332,48.8773 C55.957,48.8773 54.6875,47.6566 54.6875,44.5316 L54.6875,8.0082 L95.2635,48.8773 L59.0332,48.8773 Z M14.2107154,4.72025316 L9.5055,4.72025316 C9.5055,99.0374919 9.5055,43.3024632 9.5055,131.1 L14.2107154,131.1 M29.8696723,3.1 L25.1644569,3.1 C25.1644569,98.6264341 25.1644569,42.1768538 25.1644569,131.1 L29.8696723,131.1 M45.5286293,3.1 L40.8234138,3.1 C40.8234138,98.6264341 40.8234138,42.1768538 40.8234138,131.1 L45.5286293,131.1 M61.1875862,51.1 L56.4823707,51.1 C56.4823707,110.804021 56.4823707,75.5230336 56.4823707,131.1 L61.1875862,131.1 M76.8465431,50.0873418 L72.1413277,50.0873418 C72.1413277,110.54711 72.1413277,74.8195277 72.1413277,131.1 L76.8465431,131.1 M92.5055,50.0873418 L87.8002846,50.0873418 C87.8002846,110.54711 87.8002846,74.8195277 87.8002846,131.1 L92.5055,131.1 M50.4020517,14.1 L5.5055,14.1 C5.5055,17.6221179 5.5055,15.5407874 5.5055,18.8194381 L50.4020517,18.8194381 M50.4020517,30.6467603 L5.5055,30.6467603 C5.5055,34.1688782 5.5055,32.0875478 5.5055,35.3661984 L50.4020517,35.3661984 M50.4020517,47.1935206 L5.5055,47.1935206 C5.5055,50.7156385 5.5055,48.6343081 5.5055,51.9129587 L50.4020517,51.9129587 M98.5055,63.740281 L5.5055,63.740281 C5.5055,67.2623989 5.5055,65.1810684 5.5055,68.459719 L98.5055,68.459719 M98.5055,80.2870413 L5.5055,80.2870413 C5.5055,83.8091592 5.5055,81.7278287 5.5055,85.0064794 L98.5055,85.0064794 M98.5055,96.8338016 L5.5055,96.8338016 C5.5055,100.355919 5.5055,98.274589 5.5055,101.55324 L98.5055,101.55324 M98.5055,113.380562 L5.5055,113.380562 C5.5055,116.90268 5.5055,114.821349 5.5055,118.1 L98.5055,118.1" id="Shape"></path>
                </g>
                <g id="Thin-L" transform="translate(296.198000, 836.953500)">
                    <path d="M16.6015,132.9587 L84.6675,132.9587 C95.5075,132.9587 101.2205,127.2458 101.2205,116.3571 L101.2205,54.1012 C101.2205,49.4626 100.3905,47.3141 97.6075,44.4333 L56.8359,3.6618 C54.0527,0.83 51.8554,0 47.3144,0 L16.6015,0 C5.8593,0 0,5.7614 0,16.6501 L0,116.3571 C0,127.2458 5.7128,132.9587 16.6015,132.9587 Z M16.7968,129.0524 C8.3007,129.0524 3.9062,124.609 3.9062,116.2106 L3.9062,16.7965 C3.9062,8.6422 8.3007,3.9548 16.7968,3.9548 L48.6816,3.9548 L48.6816,44.0915 C48.6816,50.0973 51.6601,52.6364 57.2265,52.6364 L97.3145,52.6364 L97.3145,116.2106 C97.3145,124.609 92.9195,129.0524 84.4725,129.0524 L16.7968,129.0524 Z M57.5195,48.779 C53.9062,48.779 52.539,47.363 52.539,43.7985 L52.539,4.9313 L96.2895,48.779 L57.5195,48.779 Z M49.0160862,12.611 L2.1885,12.611 C2.1885,15.1317864 2.1885,13.6421743 2.1885,15.9887107 L49.0160862,15.9887107 M13.140881,3.24391139 L9.1885,3.24391139 C9.1885,98.2980036 9.1885,42.1275449 9.1885,130.611 L13.140881,130.611 M28.9504048,1.611 L24.9980238,1.611 C24.9980238,97.8837344 24.9980238,40.9931417 24.9980238,130.611 L28.9504048,130.611 M44.7599286,1.611 L40.8075476,1.611 C40.8075476,97.8837344 40.8075476,40.9931417 40.8075476,130.611 L44.7599286,130.611 M60.5694524,49.611 L56.6170714,49.611 C56.6170714,110.061322 56.6170714,74.3393215 56.6170714,130.611 L60.5694524,130.611 M76.3789762,48.9654304 L72.4265952,48.9654304 C72.4265952,109.897541 72.4265952,73.8908365 72.4265952,130.611 L76.3789762,130.611 M92.1885,48.9654304 L88.236119,48.9654304 C88.236119,109.897541 88.236119,73.8908365 88.236119,130.611 L92.1885,130.611 M49.0160862,27.4141842 L2.1885,27.4141842 C2.1885,29.9349706 2.1885,28.4453585 2.1885,30.7918949 L49.0160862,30.7918949 M49.0160862,42.2173684 L2.1885,42.2173684 C2.1885,44.7381548 2.1885,43.2485426 2.1885,45.5950791 L49.0160862,45.5950791 M99.1885,57.0205526 L2.1885,57.0205526 C2.1885,59.5413389 2.1885,58.0517268 2.1885,60.3982632 L99.1885,60.3982632 M99.1885,71.8237368 L2.1885,71.8237368 C2.1885,74.3445231 2.1885,72.854911 2.1885,75.2014474 L99.1885,75.2014474 M99.1885,86.6269209 L2.1885,86.6269209 C2.1885,89.1477073 2.1885,87.6580952 2.1885,90.0046316 L99.1885,90.0046316 M99.1885,101.430105 L2.1885,101.430105 C2.1885,103.950892 2.1885,102.461279 2.1885,104.807816 L99.1885,104.807816 M99.1885,116.233289 L2.1885,116.233289 C2.1885,118.754076 2.1885,117.264464 2.1885,119.611 L99.1885,119.611" id="Shape"></path>
                </g>
                <g id="Ultralight-L" transform="translate(0.000000, 837.246500)">
                    <path d="M15.9179,132.4703 L84.2285,132.4703 C94.6285,132.4703 100.1955,126.9039 100.1955,116.5524 L100.1955,53.2223 C100.1955,49.316 99.3655,47.4606 97.0705,45.1168 L54.9804,3.1246 C52.6367,0.781 50.83,0 46.8261,0 L15.9179,0 C5.7128,0 0,5.5172 0,15.9176 L0,116.5524 C0,126.9039 5.5664,132.4703 15.9179,132.4703 Z M16.0644,129.8825 C7.1777,129.8825 2.539,125.2926 2.539,116.4059 L2.539,16.0641 C2.539,7.4703 7.1777,2.5387 16.0644,2.5387 L48.7793,2.5387 L48.7793,43.4567 C48.7793,49.0231 51.6113,51.318 56.6406,51.318 L97.6075,51.318 L97.6075,116.4059 C97.6075,125.2926 93.0175,129.8825 84.1305,129.8825 L16.0644,129.8825 Z M56.7382,48.6813 C52.8808,48.6813 51.416,47.2164 51.416,43.4078 L51.416,3.32 L96.8265,48.6813 L56.7382,48.6813 Z M48.7313276,15.318 L2.3865,15.318 C2.3865,17.1125388 2.3865,16.0520893 2.3865,17.7225802 L48.7313276,17.7225802 M11.9319545,2.318 L9.3865,2.318 C9.3865,97.8444341 9.3865,41.3948538 9.3865,130.318 L11.9319545,130.318 M25.5077121,2.318 L22.9622576,2.318 C22.9622576,97.8444341 22.9622576,41.3948538 22.9622576,130.318 L25.5077121,130.318 M39.0834697,2.318 L36.5380152,2.318 C36.5380152,97.8444341 36.5380152,41.3948538 36.5380152,130.318 L39.0834697,130.318 M52.6592273,48.318 L50.1137727,48.318 C50.1137727,109.514622 50.1137727,73.3516094 50.1137727,130.318 L52.6592273,130.318 M66.2349848,49.3053418 L63.6895303,49.3053418 C63.6895303,109.76511 63.6895303,74.0375277 63.6895303,130.318 L66.2349848,130.318 M79.8107424,49.3053418 L77.2652879,49.3053418 C77.2652879,109.76511 77.2652879,74.0375277 77.2652879,130.318 L79.8107424,130.318 M93.3865,49.3053418 L90.8410455,49.3053418 C90.8410455,109.76511 90.8410455,74.0375277 90.8410455,130.318 L93.3865,130.318 M48.7313276,28.1424275 L2.3865,28.1424275 C2.3865,29.9369663 2.3865,28.8765168 2.3865,30.5470076 L48.7313276,30.5470076 M48.7313276,40.966855 L2.3865,40.966855 C2.3865,42.7613938 2.3865,41.7009442 2.3865,43.3714351 L48.7313276,43.3714351 M98.3865,53.7912824 L2.3865,53.7912824 C2.3865,55.5858213 2.3865,54.5253717 2.3865,56.1958626 L98.3865,56.1958626 M98.3865,66.6157099 L2.3865,66.6157099 C2.3865,68.4102487 2.3865,67.3497992 2.3865,69.0202901 L98.3865,69.0202901 M98.3865,79.4401374 L2.3865,79.4401374 C2.3865,81.2346762 2.3865,80.1742267 2.3865,81.8447176 L98.3865,81.8447176 M98.3865,92.2645649 L2.3865,92.2645649 C2.3865,94.0591037 2.3865,92.9986542 2.3865,94.669145 L98.3865,94.669145 M98.3865,105.088992 L2.3865,105.088992 C2.3865,106.883531 2.3865,105.823082 2.3865,107.493573 L98.3865,107.493573 M98.3865,117.91342 L2.3865,117.91342 C2.3865,119.707959 2.3865,118.647509 2.3865,120.318 L98.3865,120.318" id="Shape"></path>
                </g>
                <g id="Black-M" transform="translate(2377.817700, 417.939500)">
                    <path d="M19.5312,110.8398 L72.4121,110.8398 C84.6679,110.8398 91.9438,103.5645 91.9438,91.308594 L91.9438,47.0215 C91.9438,37.8418 90.2828,32.8125 84.3261,26.8555 L65.1367,7.6172 C59.1308,1.6602 54.1504,0 44.873,0 L19.5312,0 C7.2754,0 0,7.2754 0,19.5312 L0,91.308594 C0,103.5645 7.2754,110.8398 19.5312,110.8398 Z M22.4609,92.5293 C19.3847,92.5293 18.3105,91.210938 18.3105,88.37891 L18.3105,22.4609 C18.3105,19.6289 19.3847,18.3105 22.4609,18.3105 L38.623,18.3105 L38.623,36.8652 C38.623,48.1934 43.75,53.3203 55.0781,53.3203 L73.6816,53.3203 L73.6816,88.37891 C73.6816,91.210938 72.5586,92.5293 69.4824,92.5293 L22.4609,92.5293 Z M56.1035,39.502 C53.7109,39.502 52.4414,38.2324 52.4414,35.8398 L52.4414,18.6523 L73.3398,39.502 L56.1035,39.502 Z M26.8261898,14.625 L20.5688,14.625 C20.5688,74.3290213 20.5688,39.0480336 20.5688,94.625 L26.8261898,94.625 M41.7403932,14.625 L35.4830034,14.625 C35.4830034,74.3290213 35.4830034,39.0480336 35.4830034,94.625 L41.7403932,94.625 M56.6545966,42.9794304 L50.3972068,42.9794304 C50.3972068,81.5225328 50.3972068,58.7461989 50.3972068,94.625 L56.6545966,94.625 M71.5688,43.9920886 L65.3114102,43.9920886 C65.3114102,81.7794439 65.3114102,59.4497048 65.3114102,94.625 L71.5688,94.625 M45.5343172,25.625 L16.5688,25.625 C16.5688,31.916255 16.5688,28.1985541 16.5688,34.0549246 L45.5343172,34.0549246 M45.5343172,42.4816918 L16.5688,42.4816918 C16.5688,48.7729468 16.5688,45.0552459 16.5688,50.9116164 L45.5343172,50.9116164 M75.4576889,59.3383836 L16.5688,59.3383836 C16.5688,65.6296386 16.5688,61.9119377 16.5688,67.7683082 L75.4576889,67.7683082 M76.5688,76.1950754 L16.5688,76.1950754 C16.5688,82.4863304 16.5688,78.7686296 16.5688,84.625 L76.5688,84.625" id="Shape"></path>
                </g>
                <g id="Heavy-M" transform="translate(2082.247700, 418.671900)">
                    <path d="M18.5058,109.375 L71.1426,109.375 C82.8613,109.375 89.6488,102.5879 89.6488,90.820334 L89.6488,46.5332 C89.6488,38.0371 88.1838,33.5449 82.7148,28.0274 L61.6699,6.8848 C56.25,1.4649 51.709,0 43.3593,0 L18.5058,0 C6.7383,0 0,6.7871 0,18.5547 L0,90.820334 C0,102.6367 6.7383,109.375 18.5058,109.375 Z M20.8008,93.55471 C17.2851,93.55471 15.8203,91.89455 15.8203,88.57424 L15.8203,20.8008 C15.8203,17.5293 17.2851,15.8203 20.8496,15.8203 L38.2812,15.8203 L38.2812,36.6699 C38.2812,46.7774 42.9687,51.4649 53.0273,51.4649 L73.8281,51.4649 L73.8281,88.57424 C73.8281,91.89455 72.3633,93.55471 68.7988,93.55471 L20.8008,93.55471 Z M54.0039,39.1602 C51.7578,39.1602 50.5859,37.9883 50.5859,35.6934 L50.5859,16.4551 L73.1933,39.1602 L54.0039,39.1602 Z M26.1508019,12.8926 L20.1388,12.8926 C20.1388,75.5818224 20.1388,38.5367853 20.1388,96.8926 L26.1508019,96.8926 M40.4801346,12.8926 L34.4681327,12.8926 C34.4681327,75.5818224 34.4681327,38.5367853 34.4681327,96.8926 L40.4801346,96.8926 M54.8094673,42.6647519 L48.7974654,42.6647519 C48.7974654,83.1350094 48.7974654,59.2198589 48.7974654,96.8926 L54.8094673,96.8926 M69.1388,43.728043 L63.1267981,43.728043 C63.1267981,83.4047661 63.1267981,59.9585401 63.1267981,96.8926 L69.1388,96.8926 M44.0353517,22.8926 L13.1388,22.8926 C13.1388,27.8036624 13.1388,24.9015609 13.1388,29.4731449 L44.0353517,29.4731449 M44.0353517,37.2474638 L13.1388,37.2474638 C13.1388,42.1585262 13.1388,39.2564246 13.1388,43.8280087 L44.0353517,43.8280087 M75.9536148,51.6023275 L13.1388,51.6023275 C13.1388,56.51339 13.1388,53.6112884 13.1388,58.1828725 L75.9536148,58.1828725 M77.1388,65.9571913 L13.1388,65.9571913 C13.1388,70.8682537 13.1388,67.9661522 13.1388,72.5377362 L77.1388,72.5377362 M77.1388,80.3120551 L13.1388,80.3120551 C13.1388,85.2231175 13.1388,82.321016 13.1388,86.8926 L77.1388,86.8926" id="Shape"></path>
                </g>
                <g id="Bold-M" transform="translate(1786.837700, 419.453200)">
                    <path d="M17.334,107.7636 L69.7265,107.7636 C80.8593,107.7636 87.0605,101.5625 87.0605,90.332 L87.0605,46.0449 C87.0605,38.2812 85.8398,34.4238 80.9082,29.4433 L57.8613,6.1035 C53.0273,1.2695 48.9746,0 41.6015,0 L17.334,0 C6.1523,0 0,6.25 0,17.4316 L0,90.332 C0,101.6113 6.1523,107.7636 17.334,107.7636 Z M18.9941,94.67771 C14.9414,94.67771 13.0859,92.67575 13.0859,88.818331 L13.0859,18.9941 C13.0859,15.1367 14.9414,13.0859 18.9941,13.0859 L37.9394,13.0859 L37.9394,36.5234 C37.9394,45.2636 42.041,49.3652 50.7812,49.3652 L73.9746,49.3652 L73.9746,88.818331 C73.9746,92.67575 72.1191,94.67771 68.0176,94.67771 L18.9941,94.67771 Z M51.709,38.7695 C49.5605,38.7695 48.5351,37.7441 48.5351,35.5957 L48.5351,14.0136 L73.0468,38.7695 L51.709,38.7695 Z M23.1742715,10.1113 L16.5488,10.1113 C16.5488,77.278324 16.5488,37.5872128 16.5488,100.1113 L23.1742715,100.1113 M38.965781,10.1113 L32.3403095,10.1113 C32.3403095,77.278324 32.3403095,37.5872128 32.3403095,100.1113 L38.965781,100.1113 M54.7572905,42.0100342 L48.131819,42.0100342 C48.131819,85.3710244 48.131819,59.7476488 48.131819,100.1113 L54.7572905,100.1113 M70.5488,43.1492747 L63.9233285,43.1492747 C63.9233285,85.6600494 63.9233285,60.5390929 63.9233285,100.1113 L70.5488,100.1113 M42.4453517,20.1113 L11.5488,20.1113 C11.5488,24.8369615 11.5488,22.0444192 11.5488,26.4434182 L42.4453517,26.4434182 M42.4453517,35.2782704 L11.5488,35.2782704 C11.5488,40.003932 11.5488,37.2113896 11.5488,41.6103887 L42.4453517,41.6103887 M74.3636148,50.4452409 L11.5488,50.4452409 C11.5488,55.1709024 11.5488,52.3783601 11.5488,56.7773591 L74.3636148,56.7773591 M75.5488,65.6122113 L11.5488,65.6122113 C11.5488,70.3378729 11.5488,67.5453305 11.5488,71.9443296 L75.5488,71.9443296 M75.5488,80.7791818 L11.5488,80.7791818 C11.5488,85.5048433 11.5488,82.712301 11.5488,87.1113 L75.5488,87.1113" id="Shape"></path>
                </g>
                <g id="Semibold-M" transform="translate(1491.027700, 420.039100)">
                    <path d="M16.5527,106.6406 L68.7011,106.6406 C79.4922,106.6406 85.2539,100.7813 85.2539,89.94142 L85.2539,45.6543 C85.2539,38.4277 84.2285,34.9609 79.6875,30.3711 L55.2246,5.5664 C50.7812,1.0742 47.0703,0 40.4297,0 L16.5527,0 C5.7617,0 0,5.8106 0,16.6504 L0,89.94142 C0,100.8301 5.7617,106.6406 16.5527,106.6406 Z M17.7246,95.45899 C13.2812,95.45899 11.1816,93.16407 11.1816,88.964853 L11.1816,17.6758 C11.1816,13.4766 13.2812,11.1816 17.7246,11.1816 L37.6953,11.1816 L37.6953,36.377 C37.6953,44.1895 41.455,47.9004 49.1699,47.9004 L74.0722,47.9004 L74.0722,88.964853 C74.0722,93.16407 71.9238,95.45899 67.5293,95.45899 L17.7246,95.45899 Z M50.0976,38.4766 C48.0468,38.4766 47.1191,37.5488 47.1191,35.4492 L47.1191,12.3047 L72.9492,38.4766 L50.0976,38.4766 Z M25.8800263,9.5254 L20.3588,9.5254 C20.3588,75.1998235 20.3588,36.390737 20.3588,97.5254 L25.8800263,97.5254 M39.0396175,9.5254 L33.5183912,9.5254 C33.5183912,75.1998235 33.5183912,36.390737 33.5183912,97.5254 L39.0396175,97.5254 M52.1992088,40.7152734 L46.6779825,40.7152734 C46.6779825,83.112686 46.6779825,58.0587188 46.6779825,97.5254 L52.1992088,97.5254 M65.3588,41.8291975 L59.8375737,41.8291975 C59.8375737,83.3952883 59.8375737,58.8325753 59.8375737,97.5254 L65.3588,97.5254 M41.220869,17.5254 L9.3588,17.5254 C9.3588,21.1348879 9.3588,19.0019277 9.3588,22.3619089 L41.220869,22.3619089 M41.220869,30.5580982 L9.3588,30.5580982 C9.3588,34.1675861 9.3588,32.034626 9.3588,35.3946071 L41.220869,35.3946071 M74.1365778,43.5907964 L9.3588,43.5907964 C9.3588,47.2002843 9.3588,45.0673242 9.3588,48.4273053 L74.1365778,48.4273053 M75.3588,56.6234947 L9.3588,56.6234947 C9.3588,60.2329825 9.3588,58.1000224 9.3588,61.4600036 L75.3588,61.4600036 M75.3588,69.6561929 L9.3588,69.6561929 C9.3588,73.2656808 9.3588,71.1327206 9.3588,74.4927018 L75.3588,74.4927018 M75.3588,82.6888911 L9.3588,82.6888911 C9.3588,86.298379 9.3588,84.1654188 9.3588,87.5254 L75.3588,87.5254" id="Shape"></path>
                </g>
                <g id="Medium-M" transform="translate(1194.997700, 420.429700)">
                    <path d="M15.9179,105.8106 L67.9687,105.8106 C78.4668,105.8106 83.8867,100.293 83.8867,89.74613 L83.8867,45.4102 C83.8867,38.5743 83.0078,35.4493 78.7597,31.1036 L53.2226,5.1758 C49.0722,0.9766 45.6543,0 39.5019,0 L15.9179,0 C5.4687,0 0,5.5176 0,16.1133 L0,89.74613 C0,100.293 5.4687,105.8106 15.9179,105.8106 Z M16.748,96.04496 C12.0605,96.04496 9.7168,93.60355 9.7168,89.111362 L9.7168,16.6993 C9.7168,12.2559 12.0605,9.7657 16.7968,9.7657 L37.5,9.7657 L37.5,36.3282 C37.5,43.4082 40.9668,46.8262 47.998,46.8262 L74.1699,46.8262 L74.1699,89.111362 C74.1699,93.60355 71.8261,96.04496 67.0898,96.04496 L16.748,96.04496 Z M48.9258,38.2813 C46.875,38.2813 45.9961,37.4024 45.9961,35.4004 L45.9961,11.0352 L72.8515,38.2813 L48.9258,38.2813 Z M18.9898082,8.1348 L13.3888,8.1348 C13.3888,76.7944245 13.3888,36.2212886 13.3888,100.1348 L18.9898082,100.1348 M32.3395562,8.1348 L26.7385479,8.1348 C26.7385479,76.7944245 26.7385479,36.2212886 26.7385479,100.1348 L32.3395562,100.1348 M45.6893041,40.7423949 L40.0882959,40.7423949 C40.0882959,85.0669627 40.0882959,58.8741787 40.0882959,100.1348 L45.6893041,100.1348 M59.0390521,41.9069519 L53.4380438,41.9069519 C53.4380438,85.3624105 53.4380438,59.6832105 53.4380438,100.1348 L59.0390521,100.1348 M72.3888,41.9069519 L66.7877918,41.9069519 C66.7877918,85.3624105 66.7877918,59.6832105 66.7877918,100.1348 L72.3888,100.1348 M40.7336276,16.1348 L8.3888,16.1348 C8.3888,19.9396979 8.3888,17.6912638 8.3888,21.2331473 L40.7336276,21.2331473 M40.7336276,29.5151305 L8.3888,29.5151305 C8.3888,33.3200285 8.3888,31.0715944 8.3888,34.6134778 L40.7336276,34.6134778 M74.1480593,42.8954611 L8.3888,42.8954611 C8.3888,46.700359 8.3888,44.4519249 8.3888,47.9938084 L74.1480593,47.9938084 M75.3888,56.2757916 L8.3888,56.2757916 C8.3888,60.0806896 8.3888,57.8322555 8.3888,61.3741389 L75.3888,61.3741389 M75.3888,69.6561222 L8.3888,69.6561222 C8.3888,73.4610201 8.3888,71.212586 8.3888,74.7544695 L75.3888,74.7544695 M75.3888,83.0364527 L8.3888,83.0364527 C8.3888,86.8413506 8.3888,84.5929165 8.3888,88.1348 L75.3888,88.1348" id="Shape"></path>
                </g>
                <g id="Regular-M" transform="translate(899.167700, 420.966800)">
                    <path d="M15.1367,104.6875 L66.9922,104.6875 C77.0996,104.6875 82.1289,99.5606 82.1289,89.40434 L82.1289,45.0684 C82.1289,38.7696 81.3965,36.0352 77.4902,32.0313 L50.5859,4.6387 C46.875,0.8301 43.7988,0 38.33,0 L15.1367,0 C5.0781,0 0,5.1758 0,15.3321 L0,89.40434 C0,99.6094 5.0293,104.6875 15.1367,104.6875 Z M15.4785,96.82622 C10.4492,96.82622 7.8613,94.14067 7.8613,89.25786 L7.8613,15.4786 C7.8613,10.6446 10.4492,7.8614 15.5273,7.8614 L37.2558,7.8614 L37.2558,36.2305 C37.2558,42.3829 40.332,45.4102 46.4355,45.4102 L74.2676,45.4102 L74.2676,89.25786 C74.2676,94.14067 71.6797,96.82622 66.6015,96.82622 L15.4785,96.82622 Z M47.3144,38.0372 C45.3613,38.0372 44.6289,37.2559 44.6289,35.3028 L44.6289,9.375 L72.7539,38.0372 L47.3144,38.0372 Z M17.9918576,5.5977 L14.2188,5.5977 C14.2188,76.4962253 14.2188,34.6000524 14.2188,100.5977 L17.9918576,100.5977 M30.5485932,5.5977 L26.7755356,5.5977 C26.7755356,76.4962253 26.7755356,34.6000524 26.7755356,100.5977 L30.5485932,100.5977 M43.1053288,39.2685861 L39.3322712,39.2685861 C39.3322712,85.0385202 39.3322712,57.9916237 39.3322712,100.5977 L43.1053288,100.5977 M55.6620644,40.4711177 L51.8890068,40.4711177 C51.8890068,85.3436021 51.8890068,58.827037 51.8890068,100.5977 L55.6620644,100.5977 M68.2188,40.4711177 L64.4457424,40.4711177 C64.4457424,85.3436021 64.4457424,58.827037 64.4457424,100.5977 L68.2188,100.5977 M40.0463862,13.5977 L7.2188,13.5977 C7.2188,16.420597 7.2188,14.7524582 7.2188,17.3802218 L40.0463862,17.3802218 M40.0463862,25.6339464 L7.2188,25.6339464 C7.2188,28.4568434 7.2188,26.7887046 7.2188,29.4164681 L40.0463862,29.4164681 M40.0463862,37.6701927 L7.2188,37.6701927 C7.2188,40.4930897 7.2188,38.8249509 7.2188,41.4527145 L40.0463862,41.4527145 M75.2188,49.7064391 L7.2188,49.7064391 C7.2188,52.5293361 7.2188,50.8611973 7.2188,53.4889609 L75.2188,53.4889609 M75.2188,61.7426855 L7.2188,61.7426855 C7.2188,64.5655825 7.2188,62.8974437 7.2188,65.5252073 L75.2188,65.5252073 M75.2188,73.7789319 L7.2188,73.7789319 C7.2188,76.6018289 7.2188,74.9336901 7.2188,77.5614536 L75.2188,77.5614536 M75.2188,85.8151782 L7.2188,85.8151782 C7.2188,88.6380752 7.2188,86.9699364 7.2188,89.5977 L75.2188,89.5977" id="Shape"></path>
                </g>
                <g id="Light-M" transform="translate(603.167700, 421.357500)">
                    <path d="M14.2578,104.0527 L66.455,104.0527 C75.9277,104.0527 80.7129,99.1699 80.7129,89.64841 L80.7129,43.8476 C80.7129,38.5742 80.0293,36.2304 76.8066,32.9101 L48.0957,3.9062 C44.9707,0.7324 42.4316,0 37.6953,0 L14.2578,0 C4.8828,0 0,4.834 0,14.3554 L0,89.64841 C0,99.1699 4.834,104.0527 14.2578,104.0527 Z M14.5508,97.998 C8.9355,97.998 6.0547,95.0195 6.0547,89.50192 L6.0547,14.5019 C6.0547,9.1308 8.9355,6.0058 14.5996,6.0058 L37.4023,6.0058 L37.4023,35.4004 C37.4023,40.9668 40.2343,43.6035 45.6543,43.6035 L74.707,43.6035 L74.707,89.50192 C74.707,95.0195 71.7773,97.998 66.1621,97.998 L14.5508,97.998 Z M46.289,37.8906 C44.0429,37.8906 43.1152,37.0117 43.1152,34.7656 L43.1152,7.2265 L73.4863,37.8906 L46.289,37.8906 Z M12.7902286,5.44750633 L9.2188,5.44750633 C9.2188,77.6591423 9.2188,34.9870109 9.2188,102.207 L12.7902286,102.207 M24.6759429,4.207 L21.1045143,4.207 C21.1045143,77.3444261 21.1045143,34.1252162 21.1045143,102.207 L24.6759429,102.207 M36.5616571,4.207 L32.9902286,4.207 C32.9902286,77.3444261 32.9902286,34.1252162 32.9902286,102.207 L36.5616571,102.207 M48.4473714,38.9411772 L44.8759429,38.9411772 C44.8759429,86.1564776 44.8759429,58.2554687 44.8759429,102.207 L48.4473714,102.207 M60.3330857,40.1816835 L56.7616571,40.1816835 C56.7616571,86.4711938 56.7616571,59.1172634 56.7616571,102.207 L60.3330857,102.207 M72.2188,40.1816835 L68.6473714,40.1816835 C68.6473714,86.4711938 68.6473714,59.1172634 68.6473714,102.207 L72.2188,102.207 M39.4946621,12.207 L5.2188,12.207 C5.2188,14.8485884 5.2188,13.2875906 5.2188,15.7465786 L39.4946621,15.7465786 M39.4946621,24.6170702 L5.2188,24.6170702 C5.2188,27.2586587 5.2188,25.6976608 5.2188,28.1566488 L39.4946621,28.1566488 M39.4946621,37.0271405 L5.2188,37.0271405 C5.2188,39.6687289 5.2188,38.1077311 5.2188,40.566719 L39.4946621,40.566719 M76.2188,49.4372107 L5.2188,49.4372107 C5.2188,52.0787991 5.2188,50.5178013 5.2188,52.9767893 L76.2188,52.9767893 M76.2188,61.847281 L5.2188,61.847281 C5.2188,64.4888694 5.2188,62.9278715 5.2188,65.3868595 L76.2188,65.3868595 M76.2188,74.2573512 L5.2188,74.2573512 C5.2188,76.8989396 5.2188,75.3379418 5.2188,77.7969298 L76.2188,77.7969298 M76.2188,86.6674214 L5.2188,86.6674214 C5.2188,89.3090099 5.2188,87.748012 5.2188,90.207 L76.2188,90.207" id="Shape"></path>
                </g>
                <g id="Thin-M" transform="translate(307.355700, 421.796900)">
                    <path d="M13.1347,103.2227 L65.7715,103.2227 C74.3652,103.2227 78.9062,98.6817 78.9062,90.03908 L78.9062,42.2852 C78.9062,38.3789 78.2715,36.5723 75.8789,34.1309 L44.873,3.0274 C42.4804,0.6836 40.625,0 36.8652,0 L13.1347,0 C4.5898,0 0,4.541 0,13.1836 L0,90.03908 C0,98.7305 4.4922,103.2227 13.1347,103.2227 Z M13.2812,99.6094 C6.9336,99.6094 3.6133,96.28908 3.6133,89.94143 L3.6133,13.2813 C3.6133,7.1778 6.9336,3.6133 13.33,3.6133 L37.6465,3.6133 L37.6465,34.375 C37.6465,39.209 40.0879,41.3574 44.6289,41.3574 L75.2929,41.3574 L75.2929,89.94143 C75.2929,96.28908 71.9726,99.6094 65.5761,99.6094 L13.2812,99.6094 Z M44.9218,37.8418 C42.2363,37.8418 41.1621,36.7676 41.1621,34.0821 L41.1621,4.4922 L74.414,37.8418 L44.9218,37.8418 Z M8.7108,3.03342278 L6.0308,3.03342278 C6.0308,76.7187656 6.0308,33.1757744 6.0308,101.7676 L8.7108,101.7676 M19.4308,1.7676 L16.7508,1.7676 C16.7508,76.3976267 16.7508,32.296392 16.7508,101.7676 L19.4308,101.7676 M30.1508,1.7676 L27.4708,1.7676 C27.4708,76.3976267 27.4708,32.296392 27.4708,101.7676 L30.1508,101.7676 M40.8708,37.210638 L38.1908,37.210638 C38.1908,85.3895159 38.1908,56.9190986 38.1908,101.7676 L40.8708,101.7676 M51.5908,38.4764608 L48.9108,38.4764608 C48.9108,85.7106549 48.9108,57.798481 48.9108,101.7676 L51.5908,101.7676 M62.3108,38.4764608 L59.6308,38.4764608 C59.6308,85.7106549 59.6308,57.798481 59.6308,101.7676 L62.3108,101.7676 M73.0308,38.4764608 L70.3508,38.4764608 C70.3508,85.7106549 70.3508,57.798481 70.3508,101.7676 L73.0308,101.7676 M38.2376966,11.7676 L2.0308,11.7676 C2.0308,13.6758588 2.0308,12.5482086 2.0308,14.3245586 L38.2376966,14.3245586 M38.2376966,22.9737488 L2.0308,22.9737488 C2.0308,24.8820076 2.0308,23.7543573 2.0308,25.5307073 L38.2376966,25.5307073 M38.2376966,34.1798976 L2.0308,34.1798976 C2.0308,36.0881564 2.0308,34.9605061 2.0308,36.7368561 L38.2376966,36.7368561 M77.0308,45.3860463 L2.0308,45.3860463 C2.0308,47.2943052 2.0308,46.1666549 2.0308,47.9430049 L77.0308,47.9430049 M77.0308,56.5921951 L2.0308,56.5921951 C2.0308,58.500454 2.0308,57.3728037 2.0308,59.1491537 L77.0308,59.1491537 M77.0308,67.7983439 L2.0308,67.7983439 C2.0308,69.7066027 2.0308,68.5789524 2.0308,70.3553024 L77.0308,70.3553024 M77.0308,79.0044927 L2.0308,79.0044927 C2.0308,80.9127515 2.0308,79.7851012 2.0308,81.5614512 L77.0308,81.5614512 M77.0308,90.2106414 L2.0308,90.2106414 C2.0308,92.1189003 2.0308,90.99125 2.0308,92.7676 L77.0308,92.7676" id="Shape"></path>
                </g>
                <g id="Ultralight-M" transform="translate(11.132700, 422.041100)">
                    <path d="M12.5488,102.7832 L65.4297,102.7832 C73.584,102.7832 77.9297,98.4375 77.9297,90.23434 L77.9297,41.5039 C77.9297,38.2324 77.3437,36.7187 75.3906,34.7656 L43.164,2.5879 C41.2109,0.5859 39.6972,0 36.4258,0 L12.5488,0 C4.4922,0 0,4.3457 0,12.5488 L0,90.23434 C0,98.4375 4.3457,102.7832 12.5488,102.7832 Z M12.6465,100.3906 C5.9082,100.3906 2.3926,96.875 2.3926,90.13668 L2.3926,12.6464 C2.3926,6.1523 5.9082,2.3925 12.6465,2.3925 L37.7929,2.3925 L37.7929,33.8379 C37.7929,38.33 39.9902,40.1367 44.0918,40.1367 L75.5371,40.1367 L75.5371,90.13668 C75.5371,96.875 72.0703,100.3906 65.2832,100.3906 L12.6465,100.3906 Z M44.1894,37.7441 C41.3086,37.7441 40.1855,36.6211 40.1855,33.7402 L40.1855,3.0273 L74.9023,37.7441 L44.1894,37.7441 Z M7.28410303,2.79263077 L5.2538,2.79263077 C5.2538,75.7291299 5.2538,32.628654 5.2538,100.5234 L7.28410303,100.5234 M18.1123859,1.5234 L16.0820828,1.5234 C16.0820828,75.4071264 16.0820828,31.7469041 16.0820828,100.5234 L18.1123859,100.5234 M28.9406687,1.5234 L26.9103657,1.5234 C26.9103657,75.4071264 26.9103657,31.7469041 26.9103657,100.5234 L28.9406687,100.5234 M39.7689515,1.5234 L37.7386485,1.5234 C37.7386485,75.4071264 37.7386485,31.7469041 37.7386485,100.5234 L39.7689515,100.5234 M50.5972343,37.8651722 L48.5669313,37.8651722 C48.5669313,84.6270243 48.5669313,56.9939722 48.5669313,100.5234 L50.5972343,100.5234 M61.4255172,37.8651722 L59.3952141,37.8651722 C59.3952141,84.6270243 59.3952141,56.9939722 59.3952141,100.5234 L61.4255172,100.5234 M72.2538,37.8651722 L70.223497,37.8651722 C70.223497,84.6270243 70.223497,56.9939722 70.223497,100.5234 L72.2538,100.5234 M37.9779379,12.5234 L2.2538,12.5234 C2.2538,13.9248494 2.2538,13.0966888 2.2538,14.4012626 L37.9779379,14.4012626 M37.9779379,22.5386672 L2.2538,22.5386672 C2.2538,23.9401165 2.2538,23.1119559 2.2538,24.4165298 L37.9779379,24.4165298 M37.9779379,32.5539344 L2.2538,32.5539344 C2.2538,33.9553837 2.2538,33.1272231 2.2538,34.4317969 L37.9779379,34.4317969 M76.2538,42.5692015 L2.2538,42.5692015 C2.2538,43.9706509 2.2538,43.1424903 2.2538,44.4470641 L76.2538,44.4470641 M76.2538,52.5844687 L2.2538,52.5844687 C2.2538,53.9859181 2.2538,53.1577575 2.2538,54.4623313 L76.2538,54.4623313 M76.2538,62.5997359 L2.2538,62.5997359 C2.2538,64.0011852 2.2538,63.1730246 2.2538,64.4775985 L76.2538,64.4775985 M76.2538,72.6150031 L2.2538,72.6150031 C2.2538,74.0164524 2.2538,73.1882918 2.2538,74.4928656 L76.2538,74.4928656 M76.2538,82.6302702 L2.2538,82.6302702 C2.2538,84.0317196 2.2538,83.203559 2.2538,84.5081328 L76.2538,84.5081328 M76.2538,92.6455374 L2.2538,92.6455374 C2.2538,94.0469868 2.2538,93.2188262 2.2538,94.5234 L76.2538,94.5234" id="Shape"></path>
                </g>
                <g id="Black-S" transform="translate(2387.852120, 0.000000)">
                    <path d="M15.23438,86.7188 L56.64058,86.7188 C66.21098,86.7188 71.87498,81.05473 71.87498,71.48442 L71.87498,36.8165 C71.87498,29.6387 70.60548,25.7325 65.96678,21.0938 L50.78128,5.9083 C46.14258,1.2696 42.23638,0 35.05858,0 L15.23438,0 C5.66408,0 0,5.6641 0,15.2344 L0,71.48442 C0,81.05473 5.66408,86.7188 15.23438,86.7188 Z M17.48048,72.55864 C15.03908,72.55864 14.16018,71.48442 14.16018,69.23833 L14.16018,17.4805 C14.16018,15.2344 15.03908,14.1602 17.48048,14.1602 L30.22458,14.1602 L30.22458,28.8575 C30.22458,37.6465 34.22848,41.6504 43.01758,41.6504 L57.71488,41.6504 L57.71488,69.23833 C57.71488,71.48442 56.83598,72.55864 54.39458,72.55864 L17.48048,72.55864 Z M43.79888,30.9083 C41.94338,30.9083 40.96678,29.9317 40.96678,28.0762 L40.96678,14.4532 L57.42188,30.9083 L43.79888,30.9083 Z M20.4421367,11.5645 L15.53438,11.5645 C15.53438,61.5666179 15.53438,32.0187906 15.53438,78.5645 L20.4421367,78.5645 M32.1395511,11.5645 L27.2317944,11.5645 C27.2317944,61.5666179 27.2317944,32.0187906 27.2317944,78.5645 L32.1395511,78.5645 M43.8369656,35.3113354 L38.9292089,35.3113354 C38.9292089,67.5911837 38.9292089,48.5160041 38.9292089,78.5645 L43.8369656,78.5645 M55.53438,36.1594367 L50.6266233,36.1594367 C50.6266233,67.8063468 50.6266233,49.1051903 50.6266233,78.5645 L55.53438,78.5645 M35.1205869,19.5645 L9.53438,19.5645 C9.53438,24.5761777 9.53438,21.6146194 9.53438,26.2798637 L35.1205869,26.2798637 M35.1205869,32.9927121 L9.53438,32.9927121 C9.53438,38.0043898 9.53438,35.0428315 9.53438,39.7080758 L35.1205869,39.7080758 M61.5528985,46.4209242 L9.53438,46.4209242 C9.53438,51.4326019 9.53438,48.4710436 9.53438,53.1362879 L61.5528985,53.1362879 M62.53438,59.8491363 L9.53438,59.8491363 C9.53438,64.860814 9.53438,61.8992557 9.53438,66.5645 L62.53438,66.5645" id="Shape"></path>
                </g>
                <g id="Heavy-S" transform="translate(2091.942120, 0.488300)">
                    <path d="M14.55078,85.69339 L55.71288,85.69339 C64.99028,85.69339 70.26368,80.37112 70.26368,71.14261 L70.26368,36.6211 C70.26368,29.834 69.14058,26.3184 64.79488,21.9727 L48.43748,5.4688 C44.14058,1.1719 40.52738,0 33.93558,0 L14.55078,0 C5.27348,0 0,5.3223 0,14.5996 L0,71.14261 C0,80.41995 5.27348,85.69339 14.55078,85.69339 Z M16.30858,73.24222 C13.62308,73.24222 12.49998,71.92386 12.49998,69.38479 L12.49998,16.3574 C12.49998,13.7696 13.62308,12.5 16.35738,12.5 L29.93168,12.5 L29.93168,28.8574 C29.93168,36.7676 33.64258,40.4297 41.55278,40.4297 L57.76368,40.4297 L57.76368,69.38479 C57.76368,71.92386 56.64058,73.24222 53.90628,73.24222 L16.30858,73.24222 Z M42.33398,30.6641 C40.57618,30.6641 39.69728,29.7852 39.69728,28.0762 L39.69728,13.0371 L57.22658,30.6641 L42.33398,30.6641 Z M20.2294428,9.0762 L15.44438,9.0762 C15.44438,59.0783179 15.44438,29.5304906 15.44438,76.0762 L20.2294428,76.0762 M31.6344218,9.0762 L26.8493591,9.0762 C26.8493591,59.0783179 26.8493591,29.5304906 26.8493591,76.0762 L31.6344218,76.0762 M43.0394009,32.8230354 L38.2543382,32.8230354 C38.2543382,65.1028837 38.2543382,46.0277041 38.2543382,76.0762 L43.0394009,76.0762 M54.44438,33.6711367 L49.6593172,33.6711367 C49.6593172,65.3180468 49.6593172,46.6168903 49.6593172,76.0762 L54.44438,76.0762 M34.0650697,16.0762 L9.44438,16.0762 C9.44438,20.1808515 9.44438,17.7552836 9.44438,21.5762 L34.0650697,21.5762 M34.0650697,28.0739527 L9.44438,28.0739527 C9.44438,32.1786042 9.44438,29.7530363 9.44438,33.5739527 L34.0650697,33.5739527 M59.4999356,40.0717055 L9.44438,40.0717055 C9.44438,44.1763569 9.44438,41.750789 9.44438,45.5717055 L59.4999356,45.5717055 M60.44438,52.0694582 L9.44438,52.0694582 C9.44438,56.1741097 9.44438,53.7485418 9.44438,57.5694582 L60.44438,57.5694582 M60.44438,64.067211 L9.44438,64.067211 C9.44438,68.1718624 9.44438,65.7462945 9.44438,69.567211 L60.44438,69.567211" id="Shape"></path>
                </g>
                <g id="Bold-S" transform="translate(1796.132120, 1.074300)">
                    <path d="M13.76958,84.52145 L54.68748,84.52145 C63.57418,84.52145 68.45708,79.58981 68.45708,70.70309 L68.45708,36.3281 C68.45708,30.0293 67.52928,26.9043 63.52538,22.8515 L45.80078,4.9316 C41.89458,0.9765 38.62308,0 32.71488,0 L13.76958,0 C4.88278,0 0,4.9316 0,13.8672 L0,70.70309 C0,79.63864 4.88278,84.52145 13.76958,84.52145 Z M15.03908,73.92575 C12.01168,73.92575 10.59568,72.41208 10.59568,69.53122 L10.59568,15.039 C10.59568,12.1582 12.01168,10.5957 15.03908,10.5957 L29.63868,10.5957 L29.63868,28.8086 C29.63868,35.7422 32.95898,39.0136 39.89258,39.0136 L57.86138,39.0136 L57.86138,69.53122 C57.86138,72.41208 56.44528,73.92575 53.36918,73.92575 L15.03908,73.92575 Z M40.67388,30.3711 C39.06248,30.3711 38.33008,29.5898 38.33008,27.9785 L38.33008,11.4257 L57.03128,30.3711 L40.67388,30.3711 Z M19.0394428,8.4902 L14.25438,8.4902 C14.25438,58.4923179 14.25438,28.9444906 14.25438,75.4902 L19.0394428,75.4902 M30.4444218,8.4902 L25.6593591,8.4902 C25.6593591,58.4923179 25.6593591,28.9444906 25.6593591,75.4902 L30.4444218,75.4902 M41.8494009,32.2370354 L37.0643382,32.2370354 C37.0643382,64.5168837 37.0643382,45.4417041 37.0643382,75.4902 L41.8494009,75.4902 M53.25438,33.0851367 L48.4693172,33.0851367 C48.4693172,64.7320468 48.4693172,46.0308903 48.4693172,75.4902 L53.25438,75.4902 M33.8750697,15.4902 L9.25438,15.4902 C9.25438,19.2284099 9.25438,17.0193838 9.25438,20.499189 L33.8750697,20.499189 M33.8750697,27.4879527 L9.25438,27.4879527 C9.25438,31.2261626 9.25438,29.0171366 9.25438,32.4969418 L33.8750697,32.4969418 M59.3099356,39.4857055 L9.25438,39.4857055 C9.25438,43.2239153 9.25438,41.0148893 9.25438,44.4946945 L59.3099356,44.4946945 M60.25438,51.4834582 L9.25438,51.4834582 C9.25438,55.2216681 9.25438,53.0126421 9.25438,56.4924473 L60.25438,56.4924473 M60.25438,63.481211 L9.25438,63.481211 C9.25438,67.2194208 9.25438,65.0103948 9.25438,68.4902 L60.25438,68.4902" id="Shape"></path>
                </g>
                <g id="Semibold-S" transform="translate(1500.062120, 1.464900)">
                    <path d="M13.23238,83.74022 L54.00388,83.74022 C62.64648,83.74022 67.18748,79.10155 67.18748,70.41015 L67.18748,36.1816 C67.18748,30.1758 66.40628,27.3437 62.64648,23.5351 L43.99418,4.5898 C40.33208,0.8789 37.30468,0 31.83598,0 L13.23238,0 C4.58988,0 0,4.6387 0,13.3301 L0,70.41015 C0,79.10155 4.58988,83.74022 13.23238,83.74022 Z M14.16018,74.41405 C10.88868,74.41405 9.32618,72.70507 9.32618,69.6289 L9.32618,14.1113 C9.32618,11.0351 10.88868,9.3262 14.16018,9.3262 L29.44338,9.3262 L29.44338,28.7598 C29.44338,35.0586 32.47068,38.0859 38.72068,38.0859 L57.91018,38.0859 L57.91018,69.6289 C57.91018,72.70507 56.29888,74.41405 53.02738,74.41405 L14.16018,74.41405 Z M39.55078,30.1758 C38.03708,30.1758 37.35348,29.4922 37.35348,27.9785 L37.35348,10.3027 L56.88478,30.1758 L39.55078,30.1758 Z M20.6912678,8.0996 L16.32438,8.0996 C16.32438,61.0869189 16.32438,29.7750423 16.32438,79.0996 L20.6912678,79.0996 M31.0995458,8.0996 L26.7326581,8.0996 C26.7326581,61.0869189 26.7326581,29.7750423 26.7326581,79.0996 L31.0995458,79.0996 M41.5078239,33.264157 L37.1409361,33.264157 C37.1409361,67.4711603 37.1409361,47.257164 37.1409361,79.0996 L41.5078239,79.0996 M51.9161019,34.1628911 L47.5492142,34.1628911 C47.5492142,67.6991689 47.5492142,47.8815255 47.5492142,79.0996 L51.9161019,79.0996 M32.3933455,13.0996 L6.32438,13.0996 C6.32438,16.0848011 6.32438,14.3207517 6.32438,17.0996 L32.3933455,17.0996 M32.3933455,23.8781996 L6.32438,23.8781996 C6.32438,26.8634007 6.32438,25.0993513 6.32438,27.8781996 L32.3933455,27.8781996 M59.32438,34.6567992 L6.32438,34.6567992 C6.32438,37.6420003 6.32438,35.8779509 6.32438,38.6567992 L59.32438,38.6567992 M60.32438,45.4353988 L6.32438,45.4353988 C6.32438,48.4205999 6.32438,46.6565505 6.32438,49.4353988 L60.32438,49.4353988 M60.32438,56.2139984 L6.32438,56.2139984 C6.32438,59.1991995 6.32438,57.4351501 6.32438,60.2139984 L60.32438,60.2139984 M60.32438,66.992598 L6.32438,66.992598 C6.32438,69.9777991 6.32438,68.2137497 6.32438,70.992598 L60.32438,70.992598" id="Shape"></path>
                </g>
                <g id="Medium-S" transform="translate(1203.812120, 1.757900)">
                    <path d="M12.79298,83.10543 L53.46678,83.10543 C61.91408,83.10543 66.25978,78.7109 66.25978,70.16598 L66.25978,36.0351 C66.25978,30.3222 65.52738,27.6855 61.96288,24.0234 L42.62698,4.2968 C39.16018,0.7812 36.27928,0 31.15238,0 L12.79298,0 C4.34568,0 0,4.4433 0,12.9394 L0,70.16598 C0,78.7109 4.34568,83.10543 12.79298,83.10543 Z M13.47658,74.80465 C10.05858,74.80465 8.30078,72.94918 8.30078,69.67769 L8.30078,13.4277 C8.30078,10.1562 10.05858,8.3496 13.52538,8.3496 L29.29688,8.3496 L29.29688,28.7597 C29.29688,34.5214 32.12888,37.3535 37.89058,37.3535 L57.91018,37.3535 L57.91018,69.67769 C57.91018,72.94918 56.20118,74.80465 52.73438,74.80465 L13.47658,74.80465 Z M38.72068,30.0293 C37.25588,30.0293 36.62108,29.3945 36.62108,27.9296 L36.62108,9.4726 L56.78708,30.0293 L38.72068,30.0293 Z M15.0765389,5.8066 L10.7096511,5.8066 C10.7096511,58.7939189 10.7096511,27.4820423 10.7096511,76.8066 L15.0765389,76.8066 M25.4848169,5.8066 L21.1179292,5.8066 C21.1179292,58.7939189 21.1179292,27.4820423 21.1179292,76.8066 L25.4848169,76.8066 M35.893095,30.971157 L31.5262072,30.971157 C31.5262072,65.1781603 31.5262072,44.964164 31.5262072,76.8066 L35.893095,76.8066 M46.301373,31.8698911 L41.9344853,31.8698911 C41.9344853,65.4061689 41.9344853,45.5885255 41.9344853,76.8066 L46.301373,76.8066 M56.7096511,31.8698911 L52.3427633,31.8698911 C52.3427633,65.4061689 52.3427633,45.5885255 52.3427633,76.8066 L56.7096511,76.8066 M31.6433455,11.8066 L5.57438,11.8066 C5.57438,14.8716567 5.57438,13.0604181 5.57438,15.913602 L31.6433455,15.913602 M31.6433455,22.5851996 L5.57438,22.5851996 C5.57438,25.6502563 5.57438,23.8390177 5.57438,26.6922016 L31.6433455,26.6922016 M58.57438,33.3637992 L5.57438,33.3637992 C5.57438,36.4288559 5.57438,34.6176173 5.57438,37.4708012 L58.57438,37.4708012 M59.57438,44.1423988 L5.57438,44.1423988 C5.57438,47.2074555 5.57438,45.3962169 5.57438,48.2494008 L59.57438,48.2494008 M59.57438,54.9209984 L5.57438,54.9209984 C5.57438,57.9860551 5.57438,56.1748165 5.57438,59.0280004 L59.57438,59.0280004 M59.57438,65.699598 L5.57438,65.699598 C5.57438,68.7646547 5.57438,66.9534161 5.57438,69.8066 L59.57438,69.8066" id="Shape"></path>
                </g>
                <g id="Regular-S" transform="translate(907.712120, 2.148500)">
                    <path d="M12.25588,82.3242 L52.73438,82.3242 C60.93748,82.3242 65.03908,78.17381 65.03908,69.87303 L65.03908,35.8398 C65.03908,30.4687 64.45318,28.125 61.08398,24.6582 L40.82028,3.9551 C37.64648,0.6836 35.00978,0 30.32228,0 L12.25588,0 C4.05278,0 0,4.1504 0,12.4512 L0,69.87303 C0,78.22264 4.05278,82.3242 12.25588,82.3242 Z M12.59768,75.29295 C8.93558,75.29295 7.03128,73.291 7.03128,69.77538 L7.03128,12.5488 C7.03128,9.0332 8.93558,7.0312 12.64648,7.0312 L29.10158,7.0312 L29.10158,28.7598 C29.10158,33.8379 31.68948,36.4258 36.76758,36.4258 L57.95898,36.4258 L57.95898,69.77538 C57.95898,73.291 56.05468,75.29295 52.39258,75.29295 L12.59768,75.29295 Z M37.59768,29.834 C36.23048,29.834 35.64458,29.248 35.64458,27.8808 L35.64458,8.3496 L56.64058,29.834 L37.59768,29.834 Z M14.5948912,4.416 L11.7301623,4.416 C11.7301623,60.38852 11.7301623,27.312594 11.7301623,79.416 L14.5948912,79.416 M24.128709,4.416 L21.2639801,4.416 C21.2639801,60.38852 21.2639801,27.312594 21.2639801,79.416 L24.128709,79.416 M33.6625268,30.9982785 L30.7977979,30.9982785 C30.7977979,67.132437 30.7977979,45.779624 30.7977979,79.416 L33.6625268,79.416 M43.1963445,31.9476456 L40.3316156,31.9476456 C40.3316156,67.3732911 40.3316156,46.4391608 40.3316156,79.416 L43.1963445,79.416 M52.7301623,31.9476456 L49.8654334,31.9476456 C49.8654334,67.3732911 49.8654334,46.4391608 49.8654334,79.416 L52.7301623,79.416 M32.7088628,12.416 L5.67438,12.416 C5.67438,14.5703161 5.67438,13.2972628 5.67438,15.3026614 L32.7088628,15.3026614 M32.7088628,21.6015564 L5.67438,21.6015564 C5.67438,23.7558726 5.67438,22.4828193 5.67438,24.4882178 L32.7088628,24.4882178 M32.7088628,30.7871129 L5.67438,30.7871129 C5.67438,32.941429 5.67438,31.6683757 5.67438,33.6737742 L32.7088628,33.6737742 M61.67438,39.9726693 L5.67438,39.9726693 C5.67438,42.1269855 5.67438,40.8539322 5.67438,42.8593307 L61.67438,42.8593307 M61.67438,49.1582258 L5.67438,49.1582258 C5.67438,51.3125419 5.67438,50.0394886 5.67438,52.0448871 L61.67438,52.0448871 M61.67438,58.3437822 L5.67438,58.3437822 C5.67438,60.4980983 5.67438,59.225045 5.67438,61.2304436 L61.67438,61.2304436 M61.67438,67.5293386 L5.67438,67.5293386 C5.67438,69.6836548 5.67438,68.4106015 5.67438,70.416 L61.67438,70.416" id="Shape"></path>
                </g>
                <g id="Light-S" transform="translate(611.632120, 2.441500)">
                    <path d="M11.52348,81.78706 L52.29488,81.78706 C59.91208,81.78706 63.76958,77.88081 63.76958,70.16597 L63.76958,34.8144 C63.76958,30.3222 63.23238,28.3203 60.44918,25.4882 L38.62308,3.3691 C35.98638,0.6347 33.78908,0 29.78518,0 L11.52348,0 C3.90628,0 0,3.955 0,11.6699 L0,70.16597 C0,77.88081 3.85738,81.78706 11.52348,81.78706 Z M11.76758,76.367141 C7.61718,76.367141 5.41988,74.12105 5.41988,70.06831 L5.41988,11.7675 C5.41988,7.7636 7.61718,5.4687 11.81638,5.4687 L29.24808,5.4687 L29.24808,28.0761 C29.24808,32.666 31.59178,34.8632 36.03518,34.8632 L58.34958,34.8632 L58.34958,70.06831 C58.34958,74.12105 56.20118,76.367141 52.00198,76.367141 L11.76758,76.367141 Z M36.66988,29.7851 C35.00978,29.7851 34.37498,29.1015 34.37498,27.4414 L34.37498,6.5429 L57.27538,29.7851 L36.66988,29.7851 Z M10.4754684,3.123 L7.75438,3.123 C7.75438,61.3344208 7.75438,26.9354578 7.75438,81.123 L10.4754684,81.123 M19.5312507,2.123 L16.8101623,2.123 C16.8101623,61.0807211 16.8101623,26.2407457 16.8101623,81.123 L19.5312507,81.123 M28.5870331,2.123 L25.8659446,2.123 C25.8659446,61.0807211 25.8659446,26.2407457 25.8659446,81.123 L28.5870331,81.123 M37.6428154,30.123 L34.9217269,30.123 C34.9217269,68.1843136 34.9217269,45.6926839 34.9217269,81.123 L37.6428154,81.123 M46.6985977,31.123 L43.9775093,31.123 C43.9775093,68.4380133 43.9775093,46.387396 43.9775093,81.123 L46.6985977,81.123 M55.75438,31.123 L53.0332916,31.123 C53.0332916,68.4380133 53.0332916,46.387396 53.0332916,81.123 L55.75438,81.123 M30.7888628,10.123 L3.75438,10.123 C3.75438,12.1549911 3.75438,10.9542235 3.75438,12.8457527 L30.7888628,12.8457527 M30.7888628,19.6692079 L3.75438,19.6692079 C3.75438,21.701199 3.75438,20.5004314 3.75438,22.3919606 L30.7888628,22.3919606 M30.7888628,29.2154158 L3.75438,29.2154158 C3.75438,31.2474068 3.75438,30.0466393 3.75438,31.9381685 L30.7888628,31.9381685 M59.75438,38.7616236 L3.75438,38.7616236 C3.75438,40.7936147 3.75438,39.5928471 3.75438,41.4843764 L59.75438,41.4843764 M59.75438,48.3078315 L3.75438,48.3078315 C3.75438,50.3398226 3.75438,49.139055 3.75438,51.0305842 L59.75438,51.0305842 M59.75438,57.8540394 L3.75438,57.8540394 C3.75438,59.8860305 3.75438,58.6852629 3.75438,60.5767921 L59.75438,60.5767921 M59.75438,67.4002473 L3.75438,67.4002473 C3.75438,69.4322384 3.75438,68.2314708 3.75438,70.123 L59.75438,70.123" id="Shape"></path>
                </g>
                <g id="Thin-S" transform="translate(315.730120, 2.880900)">
                    <path d="M10.49808,81.00587 L51.66018,81.00587 C58.59378,81.00587 62.15818,77.39258 62.15818,70.45899 L62.15818,33.4473 C62.15818,30.0781 61.66988,28.5645 59.61918,26.5137 L35.74218,2.5391 C33.78908,0.5371 32.17778,0 29.05278,0 L10.49808,0 C3.66208,0 0,3.6133 0,10.5469 L0,70.45899 C0,77.44141 3.61328,81.00587 10.49808,81.00587 Z M10.64458,77.73438 C5.81058,77.73438 3.32028,75.195319 3.32028,70.36133 L3.32028,10.6445 C3.32028,5.957 5.81058,3.2715 10.69338,3.2715 L29.44338,3.2715 L29.44338,27.1484 C29.44338,31.0547 31.44528,32.8125 35.15628,32.8125 L58.83788,32.8125 L58.83788,70.36133 C58.83788,75.195319 56.34768,77.73438 51.51368,77.73438 L10.64458,77.73438 Z M35.44918,29.6387 C33.44728,29.6387 32.61718,28.8574 32.61718,26.8555 L32.61718,4.0527 L58.10548,29.6387 L35.44918,29.6387 Z M7.73638,1.6836 L5.65638,1.6836 C5.65638,59.8950208 5.65638,25.4960578 5.65638,79.6836 L7.73638,79.6836 M16.05638,0.6836 L13.97638,0.6836 C13.97638,59.6413211 13.97638,24.8013457 13.97638,79.6836 L16.05638,79.6836 M24.37638,0.6836 L22.29638,0.6836 C22.29638,59.6413211 22.29638,24.8013457 22.29638,79.6836 L24.37638,79.6836 M32.69638,28.6836 L30.61638,28.6836 C30.61638,66.7449136 30.61638,44.2532839 30.61638,79.6836 L32.69638,79.6836 M41.01638,29.6836 L38.93638,29.6836 C38.93638,66.9986133 38.93638,44.947996 38.93638,79.6836 L41.01638,79.6836 M49.33638,29.6836 L47.25638,29.6836 C47.25638,66.9986133 47.25638,44.947996 47.25638,79.6836 L49.33638,79.6836 M57.65638,29.6836 L55.57638,29.6836 C55.57638,66.9986133 55.57638,44.947996 55.57638,79.6836 L57.65638,79.6836 M30.65638,9.6836 L2.65638,9.6836 C2.65638,11.1762005 2.65638,10.2941758 2.65638,11.6836 L30.65638,11.6836 M30.65638,18.4488174 L2.65638,18.4488174 C2.65638,19.9414179 2.65638,19.0593932 2.65638,20.4488174 L30.65638,20.4488174 M30.65638,27.2140348 L2.65638,27.2140348 C2.65638,28.7066353 2.65638,27.8246106 2.65638,29.2140348 L30.65638,29.2140348 M60.65638,35.9792522 L2.65638,35.9792522 C2.65638,37.4718527 2.65638,36.589828 2.65638,37.9792522 L60.65638,37.9792522 M60.65638,44.7444696 L2.65638,44.7444696 C2.65638,46.2370701 2.65638,45.3550454 2.65638,46.7444696 L60.65638,46.7444696 M60.65638,53.509687 L2.65638,53.509687 C2.65638,55.0022875 2.65638,54.1202628 2.65638,55.509687 L60.65638,55.509687 M60.65638,62.2749043 L2.65638,62.2749043 C2.65638,63.7675049 2.65638,62.8854802 2.65638,64.2749043 L60.65638,64.2749043 M60.65638,71.0401217 L2.65638,71.0401217 C2.65638,72.5327223 2.65638,71.6506976 2.65638,73.0401217 L60.65638,73.0401217" id="Shape"></path>
                </g>
                <g id="Ultralight-S" transform="translate(19.433120, 3.076200)">
                    <path d="M9.96098,80.66408 L51.31838,80.66408 C57.86138,80.66408 61.32818,77.19728 61.32818,70.65432 L61.32818,32.7149 C61.32818,29.9805 60.83988,28.711 59.17968,27.0508 L34.27738,2.1485 C32.61718,0.4883 31.34768,0 28.66208,0 L9.96098,0 C3.56448,0 0,3.4668 0,10.0098 L0,70.65432 C0,77.19728 3.46678,80.66408 9.96098,80.66408 Z M10.10738,78.46682 C4.88278,78.46682 2.19728,75.732441 2.19728,70.55666 L2.19728,10.1074 C2.19728,5.0781 4.88278,2.1973 10.10738,2.1973 L29.54098,2.1973 L29.54098,26.6602 C29.54098,30.2735 31.34768,31.7871 34.66798,31.7871 L59.13088,31.7871 L59.13088,70.55666 C59.13088,75.732441 56.44528,78.46682 51.22068,78.46682 L10.10738,78.46682 Z M34.81448,29.5899 C32.61718,29.5899 31.73828,28.7598 31.73828,26.5137 L31.73828,2.7832 L58.54488,29.5899 L34.81448,29.5899 Z M29.9558718,9.4883 L1.95587181,9.4883 C1.95587181,10.6077504 1.95587181,9.94623188 1.95587181,10.9883 L29.9558718,10.9883 M5.45587181,2.4883 L3.95587181,2.4883 C3.95587181,58.46082 3.95587181,25.384894 3.95587181,77.4883 L5.45587181,77.4883 M13.4558718,1.4883 L11.9558718,1.4883 C11.9558718,59.6997208 11.9558718,25.3007578 11.9558718,79.4883 L13.4558718,79.4883 M21.4558718,1.4883 L19.9558718,1.4883 C19.9558718,59.6997208 19.9558718,25.3007578 19.9558718,79.4883 L21.4558718,79.4883 M29.4558718,1.4883 L27.9558718,1.4883 C27.9558718,59.6997208 27.9558718,25.3007578 27.9558718,79.4883 L29.4558718,79.4883 M37.4558718,30.4883 L35.9558718,30.4883 C35.9558718,67.8033133 35.9558718,45.752696 35.9558718,80.4883 L37.4558718,80.4883 M45.4558718,30.4883 L43.9558718,30.4883 C43.9558718,67.8033133 43.9558718,45.752696 43.9558718,80.4883 L45.4558718,80.4883 M53.4558718,30.4883 L51.9558718,30.4883 C51.9558718,67.8033133 51.9558718,45.752696 51.9558718,80.4883 L53.4558718,80.4883 M29.9558718,17.4883 L1.95587181,17.4883 C1.95587181,18.6077504 1.95587181,17.9462319 1.95587181,18.9883 L29.9558718,18.9883 M29.9558718,25.4883 L1.95587181,25.4883 C1.95587181,26.6077504 1.95587181,25.9462319 1.95587181,26.9883 L29.9558718,26.9883 M59.9558718,33.4883 L1.95587181,33.4883 C1.95587181,34.6077504 1.95587181,33.9462319 1.95587181,34.9883 L59.9558718,34.9883 M59.9558718,41.4883 L1.95587181,41.4883 C1.95587181,42.6077504 1.95587181,41.9462319 1.95587181,42.9883 L59.9558718,42.9883 M59.9558718,49.4883 L1.95587181,49.4883 C1.95587181,50.6077504 1.95587181,49.9462319 1.95587181,50.9883 L59.9558718,50.9883 M59.9558718,57.4883 L1.95587181,57.4883 C1.95587181,58.6077504 1.95587181,57.9462319 1.95587181,58.9883 L59.9558718,58.9883 M59.9558718,65.4883 L1.95587181,65.4883 C1.95587181,66.6077504 1.95587181,65.9462319 1.95587181,66.9883 L59.9558718,66.9883 M59.9558718,73.4883 L1.95587181,73.4883 C1.95587181,74.6077504 1.95587181,73.9462319 1.95587181,74.9883 L59.9558718,74.9883" id="Shape"></path>
                </g>
            </g>
        </g>
    </g>
</svg>